%TF.GenerationSoftware,KiCad,Pcbnew,5.99.0-unknown-a82764f43a~117~ubuntu18.04.1*%
%TF.CreationDate,2021-04-16T14:00:01+07:00*%
%TF.ProjectId,Wifi-Pinout,57696669-2d50-4696-9e6f-75742e6b6963,rev?*%
%TF.SameCoordinates,Original*%
%TF.FileFunction,Copper,L1,Top*%
%TF.FilePolarity,Positive*%
%FSLAX46Y46*%
G04 Gerber Fmt 4.6, Leading zero omitted, Abs format (unit mm)*
G04 Created by KiCad (PCBNEW 5.99.0-unknown-a82764f43a~117~ubuntu18.04.1) date 2021-04-16 14:00:01*
%MOMM*%
%LPD*%
G01*
G04 APERTURE LIST*
G04 Aperture macros list*
%AMRoundRect*
0 Rectangle with rounded corners*
0 $1 Rounding radius*
0 $2 $3 $4 $5 $6 $7 $8 $9 X,Y pos of 4 corners*
0 Add a 4 corners polygon primitive as box body*
4,1,4,$2,$3,$4,$5,$6,$7,$8,$9,$2,$3,0*
0 Add four circle primitives for the rounded corners*
1,1,$1+$1,$2,$3*
1,1,$1+$1,$4,$5*
1,1,$1+$1,$6,$7*
1,1,$1+$1,$8,$9*
0 Add four rect primitives between the rounded corners*
20,1,$1+$1,$2,$3,$4,$5,0*
20,1,$1+$1,$4,$5,$6,$7,0*
20,1,$1+$1,$6,$7,$8,$9,0*
20,1,$1+$1,$8,$9,$2,$3,0*%
G04 Aperture macros list end*
%TA.AperFunction,ComponentPad*%
%ADD10O,2.032000X1.778000*%
%TD*%
%TA.AperFunction,ComponentPad*%
%ADD11RoundRect,0.177800X-0.838200X-0.711200X0.838200X-0.711200X0.838200X0.711200X-0.838200X0.711200X0*%
%TD*%
%TA.AperFunction,ComponentPad*%
%ADD12O,1.778000X2.032000*%
%TD*%
%TA.AperFunction,ComponentPad*%
%ADD13RoundRect,0.177800X-0.711200X0.838200X-0.711200X-0.838200X0.711200X-0.838200X0.711200X0.838200X0*%
%TD*%
%TA.AperFunction,SMDPad,CuDef*%
%ADD14R,2.000000X3.000000*%
%TD*%
%TA.AperFunction,SMDPad,CuDef*%
%ADD15R,0.250000X2.000000*%
%TD*%
%TA.AperFunction,ComponentPad*%
%ADD16R,0.850000X2.000000*%
%TD*%
%TA.AperFunction,ViaPad*%
%ADD17C,0.508000*%
%TD*%
%TA.AperFunction,Conductor*%
%ADD18C,0.508000*%
%TD*%
%TA.AperFunction,Conductor*%
%ADD19C,0.228600*%
%TD*%
%TA.AperFunction,Conductor*%
%ADD20C,0.254000*%
%TD*%
G04 APERTURE END LIST*
D10*
%TO.P,J4,6*%
%TO.N,/BT_UART_TXD*%
X168148000Y-81534000D03*
%TO.P,J4,5*%
%TO.N,/BT_UART_RXD*%
X168148000Y-78994000D03*
%TO.P,J4,4*%
%TO.N,/BT_UART_CTS*%
X168148000Y-76454000D03*
%TO.P,J4,3*%
%TO.N,/SLEEP_CLK*%
X168148000Y-73914000D03*
%TO.P,J4,2*%
%TO.N,/BT_HOST_WAKE*%
X168148000Y-71374000D03*
D11*
%TO.P,J4,1*%
%TO.N,/BT_DEV_WAKE*%
X168148000Y-68834000D03*
%TD*%
D10*
%TO.P,J3,6*%
%TO.N,/BT_UART_RST*%
X142748000Y-81534000D03*
%TO.P,J3,5*%
%TO.N,/WLAN_HOST_WAKE*%
X142748000Y-78994000D03*
%TO.P,J3,4*%
%TO.N,/BT_REG_ON*%
X142748000Y-76454000D03*
%TO.P,J3,3*%
%TO.N,/WLAN_REG_ON*%
X142748000Y-73914000D03*
%TO.P,J3,2*%
%TO.N,GND*%
X142748000Y-71374000D03*
D11*
%TO.P,J3,1*%
%TO.N,VBUS*%
X142748000Y-68834000D03*
%TD*%
D12*
%TO.P,J2,8*%
%TO.N,/SD_D1*%
X146558000Y-69088000D03*
%TO.P,J2,7*%
%TO.N,/SD_D0*%
X149098000Y-69088000D03*
%TO.P,J2,6*%
%TO.N,GND*%
X151638000Y-69088000D03*
%TO.P,J2,5*%
%TO.N,/SD_CLK*%
X154178000Y-69088000D03*
%TO.P,J2,4*%
%TO.N,VDD*%
X156718000Y-69088000D03*
%TO.P,J2,3*%
%TO.N,/SD_CMD*%
X159258000Y-69088000D03*
%TO.P,J2,2*%
%TO.N,/SD_D3*%
X161798000Y-69088000D03*
D13*
%TO.P,J2,1*%
%TO.N,/SD_D2*%
X164338000Y-69088000D03*
%TD*%
D14*
%TO.P,M1,31,GND*%
%TO.N,GND*%
X161698000Y-75946000D03*
X149198000Y-75946000D03*
D15*
%TO.P,M1,30,SDIO_D1*%
%TO.N,/SD_D1*%
X151948000Y-73296000D03*
%TO.P,M1,29,GND*%
%TO.N,GND*%
X152448000Y-73296000D03*
%TO.P,M1,28,SDIO_D0*%
%TO.N,/SD_D0*%
X152948000Y-73296000D03*
%TO.P,M1,27,GND*%
%TO.N,GND*%
X153448000Y-73296000D03*
%TO.P,M1,26,SDIO_CLK*%
%TO.N,/SD_CLK*%
X153948000Y-73296000D03*
%TO.P,M1,25,GND*%
%TO.N,GND*%
X154448000Y-73296000D03*
%TO.P,M1,24,SDIO_CMD*%
%TO.N,/SD_CMD*%
X154948000Y-73296000D03*
%TO.P,M1,23,GND*%
%TO.N,GND*%
X155448000Y-73296000D03*
%TO.P,M1,22,SDIO_D3*%
%TO.N,/SD_D3*%
X155948000Y-73296000D03*
%TO.P,M1,21,GND*%
%TO.N,GND*%
X156448000Y-73296000D03*
%TO.P,M1,20,SDIO_D2*%
%TO.N,/SD_D2*%
X156948000Y-73296000D03*
%TO.P,M1,19,GND*%
%TO.N,GND*%
X157448000Y-73296000D03*
%TO.P,M1,18,BT_HOST_WAKE*%
%TO.N,/BT_HOST_WAKE*%
X157948000Y-73296000D03*
%TO.P,M1,17,BT_DEV_WAKE*%
%TO.N,/BT_DEV_WAKE*%
X158448000Y-73296000D03*
%TO.P,M1,16,GND*%
%TO.N,GND*%
X158948000Y-73296000D03*
%TO.P,M1,15,SLEEP_CLK*%
%TO.N,/SLEEP_CLK*%
X158948000Y-78596000D03*
%TO.P,M1,14,GND*%
%TO.N,GND*%
X158448000Y-78596000D03*
%TO.P,M1,13,BT_UART_CTS_N*%
%TO.N,/BT_UART_CTS*%
X157948000Y-78596000D03*
%TO.P,M1,12,BT_UART_RXD*%
%TO.N,/BT_UART_RXD*%
X157448000Y-78596000D03*
%TO.P,M1,11,BT_UART_TXD*%
%TO.N,/BT_UART_TXD*%
X156948000Y-78596000D03*
%TO.P,M1,10,BT_UART_RST_N*%
%TO.N,/BT_UART_RST*%
X156448000Y-78596000D03*
%TO.P,M1,9,GND*%
%TO.N,GND*%
X155948000Y-78596000D03*
%TO.P,M1,8,WLAN_HOST_WAKE*%
%TO.N,/WLAN_HOST_WAKE*%
X155448000Y-78596000D03*
%TO.P,M1,7,BT_REG_ON*%
%TO.N,/BT_REG_ON*%
X154948000Y-78596000D03*
%TO.P,M1,6,WLAN_REG_ON*%
%TO.N,/WLAN_REG_ON*%
X154448000Y-78596000D03*
%TO.P,M1,5,GND*%
%TO.N,GND*%
X153948000Y-78596000D03*
%TO.P,M1,4,VIO*%
%TO.N,VDD*%
X153448000Y-78596000D03*
%TO.P,M1,3,GND*%
%TO.N,GND*%
X152948000Y-78596000D03*
%TO.P,M1,2,VBAT*%
%TO.N,VBUS*%
X152448000Y-78596000D03*
%TO.P,M1,1,VBAT*%
X151948000Y-78596000D03*
%TD*%
D16*
%TO.P,J1,9,CD*%
%TO.N,GND*%
X151048000Y-65024000D03*
%TO.P,J1,8,DAT1*%
%TO.N,/SD_D1*%
X152148000Y-65024000D03*
%TO.P,J1,7,DAT0*%
%TO.N,/SD_D0*%
X153248000Y-65024000D03*
%TO.P,J1,6,VSS*%
%TO.N,GND*%
X154348000Y-65024000D03*
%TO.P,J1,5,CLK*%
%TO.N,/SD_CLK*%
X155448000Y-65024000D03*
%TO.P,J1,4,VDD*%
%TO.N,VDD*%
X156548000Y-65024000D03*
%TO.P,J1,3,CMD*%
%TO.N,/SD_CMD*%
X157648000Y-65024000D03*
%TO.P,J1,2,DAT3*%
%TO.N,/SD_D3*%
X158748000Y-65024000D03*
%TO.P,J1,1,DAT2*%
%TO.N,/SD_D2*%
X159848000Y-65024000D03*
%TD*%
D17*
%TO.N,GND*%
X149098000Y-78232000D03*
X147193000Y-75946000D03*
X149198000Y-73560000D03*
X161798000Y-73787000D03*
X161671000Y-78232000D03*
X163449000Y-75946000D03*
X160020000Y-72644000D03*
%TO.N,VDD*%
X153416000Y-80264000D03*
%TD*%
D18*
%TO.N,VDD*%
X156548000Y-66886000D02*
X156718000Y-67056000D01*
X156718000Y-67056000D02*
X156718000Y-69088000D01*
D19*
%TO.N,/SD_CLK*%
X153948000Y-73296000D02*
X153948000Y-70842000D01*
X153948000Y-70842000D02*
X154178000Y-70612000D01*
X154178000Y-70612000D02*
X154178000Y-69088000D01*
D20*
X155448000Y-67818000D02*
X154178000Y-69088000D01*
X155448000Y-65024000D02*
X155448000Y-67818000D01*
D19*
%TO.N,/BT_UART_CTS*%
X166243000Y-78232000D02*
X166243000Y-78359000D01*
X166243000Y-78359000D02*
X166243000Y-79375000D01*
%TO.N,/BT_REG_ON*%
X142748000Y-76327000D02*
X144462500Y-78041500D01*
X144462500Y-78041500D02*
X147447000Y-81026000D01*
X144462500Y-78041500D02*
X142875000Y-76454000D01*
X142875000Y-76454000D02*
X142748000Y-76454000D01*
%TO.N,/WLAN_REG_ON*%
X144272000Y-75438000D02*
X144272000Y-76708000D01*
X154448000Y-80502000D02*
X154448000Y-78596000D01*
X142748000Y-73914000D02*
X144272000Y-75438000D01*
X144272000Y-76708000D02*
X148463000Y-80899000D01*
X148463000Y-80899000D02*
X154051000Y-80899000D01*
X154051000Y-80899000D02*
X154448000Y-80502000D01*
D18*
%TO.N,VBUS*%
X145034000Y-76200000D02*
X145034000Y-75946000D01*
X151948000Y-78596000D02*
X151423000Y-79121000D01*
X145034000Y-76200000D02*
X145034000Y-71120000D01*
X151423000Y-79121000D02*
X147955000Y-79121000D01*
X147955000Y-79121000D02*
X145034000Y-76200000D01*
X145034000Y-71120000D02*
X142748000Y-68834000D01*
D19*
%TO.N,/SLEEP_CLK*%
X165735000Y-76327000D02*
X165735000Y-78486000D01*
X164846000Y-80010000D02*
X165735000Y-79121000D01*
X164084000Y-80010000D02*
X164338000Y-80010000D01*
X159258000Y-80010000D02*
X164084000Y-80010000D01*
X165735000Y-78486000D02*
X165735000Y-78613000D01*
X165735000Y-79121000D02*
X165735000Y-78486000D01*
X164084000Y-80010000D02*
X164846000Y-80010000D01*
%TO.N,/BT_UART_CTS*%
X168148000Y-76327000D02*
X166243000Y-78232000D01*
X158496000Y-80518000D02*
X165100000Y-80518000D01*
X157948000Y-78596000D02*
X157948000Y-79970000D01*
X165100000Y-80518000D02*
X166243000Y-79375000D01*
X157948000Y-79970000D02*
X158496000Y-80518000D01*
%TO.N,/SLEEP_CLK*%
X165735000Y-76327000D02*
X165735000Y-76835000D01*
X168148000Y-73914000D02*
X165735000Y-76327000D01*
%TO.N,GND*%
X149198000Y-75946000D02*
X149198000Y-78132000D01*
X149198000Y-78132000D02*
X149098000Y-78232000D01*
X149198000Y-75946000D02*
X147193000Y-75946000D01*
X149198000Y-73560000D02*
X149225000Y-73533000D01*
X149198000Y-75946000D02*
X149198000Y-73560000D01*
X161698000Y-75946000D02*
X161698000Y-73887000D01*
X161698000Y-73887000D02*
X161798000Y-73787000D01*
X161698000Y-75946000D02*
X161698000Y-78205000D01*
X161698000Y-78205000D02*
X161671000Y-78232000D01*
X161698000Y-75946000D02*
X163449000Y-75946000D01*
X158948000Y-73296000D02*
X159368000Y-73296000D01*
X159368000Y-73296000D02*
X160020000Y-72644000D01*
%TO.N,/BT_DEV_WAKE*%
X159512000Y-74295000D02*
X161290000Y-72517000D01*
X158448000Y-74628000D02*
X158750000Y-74930000D01*
X159131000Y-74930000D02*
X159512000Y-74549000D01*
X159512000Y-74549000D02*
X159512000Y-74295000D01*
X161290000Y-72517000D02*
X164465000Y-72517000D01*
X158750000Y-74930000D02*
X159131000Y-74930000D01*
X158448000Y-73296000D02*
X158448000Y-74628000D01*
X164465000Y-72517000D02*
X168148000Y-68834000D01*
%TO.N,/BT_HOST_WAKE*%
X159956500Y-74993500D02*
X159385000Y-75565000D01*
X159385000Y-75565000D02*
X158369000Y-75565000D01*
X158369000Y-75565000D02*
X157948000Y-75144000D01*
X159956500Y-74485500D02*
X159956500Y-74993500D01*
X161290000Y-73152000D02*
X159956500Y-74485500D01*
X165735000Y-72263000D02*
X164846000Y-73152000D01*
X164846000Y-73152000D02*
X161290000Y-73152000D01*
X157948000Y-75144000D02*
X157948000Y-73296000D01*
%TO.N,GND*%
X152908000Y-76327000D02*
X153416000Y-76327000D01*
X152948000Y-76367000D02*
X152908000Y-76327000D01*
X152527000Y-76327000D02*
X152908000Y-76327000D01*
X152948000Y-78596000D02*
X152948000Y-76367000D01*
X153797000Y-76327000D02*
X154432000Y-76327000D01*
X153416000Y-76327000D02*
X153797000Y-76327000D01*
X153948000Y-78596000D02*
X153948000Y-76478000D01*
X153948000Y-76478000D02*
X153797000Y-76327000D01*
X156083000Y-76327000D02*
X156464000Y-76327000D01*
X155948000Y-78596000D02*
X155948000Y-76462000D01*
X155448000Y-76327000D02*
X156083000Y-76327000D01*
X155948000Y-76462000D02*
X156083000Y-76327000D01*
X158623000Y-76327000D02*
X161317000Y-76327000D01*
X157480000Y-76327000D02*
X158623000Y-76327000D01*
X158448000Y-78596000D02*
X158448000Y-76502000D01*
X158448000Y-76502000D02*
X158623000Y-76327000D01*
X156464000Y-76327000D02*
X157480000Y-76327000D01*
X157448000Y-73296000D02*
X157448000Y-76295000D01*
X157448000Y-76295000D02*
X157480000Y-76327000D01*
X156448000Y-76311000D02*
X156464000Y-76327000D01*
X156448000Y-73296000D02*
X156448000Y-76311000D01*
X154432000Y-76327000D02*
X155448000Y-76327000D01*
X155448000Y-73296000D02*
X155448000Y-76327000D01*
X154448000Y-73296000D02*
X154448000Y-76311000D01*
X154448000Y-76311000D02*
X154432000Y-76327000D01*
X153448000Y-73296000D02*
X153448000Y-76295000D01*
X153448000Y-76295000D02*
X153416000Y-76327000D01*
X149579000Y-76327000D02*
X152527000Y-76327000D01*
X152448000Y-73296000D02*
X152448000Y-76248000D01*
X152448000Y-76248000D02*
X152527000Y-76327000D01*
X149198000Y-75946000D02*
X149579000Y-76327000D01*
X161317000Y-76327000D02*
X161698000Y-75946000D01*
%TO.N,/SD_D0*%
X152948000Y-71922000D02*
X151892000Y-70866000D01*
X151892000Y-70866000D02*
X150876000Y-70866000D01*
X152948000Y-73296000D02*
X152948000Y-71922000D01*
X150876000Y-70866000D02*
X149098000Y-69088000D01*
%TO.N,/SD_D1*%
X151948000Y-71938000D02*
X151511000Y-71501000D01*
X151948000Y-73296000D02*
X151948000Y-71938000D01*
X151511000Y-71501000D02*
X148971000Y-71501000D01*
X148971000Y-71501000D02*
X146558000Y-69088000D01*
%TO.N,/SD_CMD*%
X157734000Y-70612000D02*
X155956000Y-70612000D01*
X159258000Y-69088000D02*
X157734000Y-70612000D01*
X155956000Y-70612000D02*
X154948000Y-71620000D01*
X154948000Y-71620000D02*
X154948000Y-73296000D01*
%TO.N,/BT_HOST_WAKE*%
X165735000Y-72263000D02*
X166497000Y-71501000D01*
X168148000Y-71374000D02*
X166624000Y-71374000D01*
X166624000Y-71374000D02*
X165735000Y-72263000D01*
%TO.N,/SLEEP_CLK*%
X165735000Y-78613000D02*
X165735000Y-77978000D01*
X158948000Y-78596000D02*
X158948000Y-79700000D01*
X158948000Y-79700000D02*
X159258000Y-80010000D01*
%TO.N,/BT_UART_RXD*%
X158242000Y-81026000D02*
X166116000Y-81026000D01*
X157670500Y-80454500D02*
X158242000Y-81026000D01*
X166116000Y-81026000D02*
X168148000Y-78994000D01*
X157670500Y-80454500D02*
X157861000Y-80645000D01*
X157448000Y-80232000D02*
X157670500Y-80454500D01*
%TO.N,/BT_UART_TXD*%
X157099000Y-80899000D02*
X157353000Y-81153000D01*
X156948000Y-80748000D02*
X157099000Y-80899000D01*
X157734000Y-81534000D02*
X157099000Y-80899000D01*
X168148000Y-81534000D02*
X157734000Y-81534000D01*
%TO.N,/BT_UART_RST*%
X156448000Y-81042000D02*
X155067000Y-82423000D01*
X156448000Y-80502000D02*
X156448000Y-81042000D01*
X155067000Y-82423000D02*
X146558000Y-82423000D01*
X146558000Y-82423000D02*
X145669000Y-81534000D01*
X145669000Y-81534000D02*
X142748000Y-81534000D01*
%TO.N,/BT_REG_ON*%
X148463000Y-81407000D02*
X147828000Y-81407000D01*
X148463000Y-81407000D02*
X154432000Y-81407000D01*
X147447000Y-81026000D02*
X147574000Y-81153000D01*
X147828000Y-81407000D02*
X147447000Y-81026000D01*
%TO.N,/WLAN_HOST_WAKE*%
X146558000Y-81280000D02*
X144335500Y-79057500D01*
X142748000Y-78994000D02*
X144272000Y-78994000D01*
X144272000Y-78994000D02*
X144335500Y-79057500D01*
X155448000Y-81153000D02*
X154686000Y-81915000D01*
X155448000Y-80137000D02*
X155448000Y-81153000D01*
X154686000Y-81915000D02*
X147193000Y-81915000D01*
X147193000Y-81915000D02*
X146685000Y-81407000D01*
%TO.N,/BT_REG_ON*%
X154432000Y-81407000D02*
X154948000Y-80891000D01*
X154948000Y-80891000D02*
X154948000Y-80129000D01*
%TO.N,/WLAN_HOST_WAKE*%
X146685000Y-81407000D02*
X146558000Y-81280000D01*
X146812000Y-81534000D02*
X146685000Y-81407000D01*
%TO.N,VDD*%
X153416000Y-80264000D02*
X153448000Y-80232000D01*
X153448000Y-80232000D02*
X153448000Y-78596000D01*
D18*
X156548000Y-65024000D02*
X156548000Y-66886000D01*
X156845000Y-69088000D02*
X156464000Y-68707000D01*
D19*
%TO.N,/BT_UART_RST*%
X156448000Y-80502000D02*
X156448000Y-80661000D01*
X156448000Y-78596000D02*
X156448000Y-80502000D01*
%TO.N,/WLAN_HOST_WAKE*%
X155448000Y-80137000D02*
X155448000Y-80645000D01*
X155448000Y-78596000D02*
X155448000Y-80137000D01*
%TO.N,/BT_REG_ON*%
X154948000Y-78596000D02*
X154948000Y-80129000D01*
X154948000Y-80129000D02*
X154948000Y-80399000D01*
%TO.N,VBUS*%
X152448000Y-78596000D02*
X151948000Y-78596000D01*
%TO.N,/BT_UART_TXD*%
X156948000Y-78596000D02*
X156948000Y-80748000D01*
%TO.N,/BT_UART_RXD*%
X157448000Y-78596000D02*
X157448000Y-80169000D01*
X157448000Y-80169000D02*
X157448000Y-80232000D01*
%TO.N,/SD_D3*%
X159766000Y-71120000D02*
X161798000Y-69088000D01*
X156591000Y-71120000D02*
X159766000Y-71120000D01*
X155948000Y-73296000D02*
X155948000Y-71763000D01*
X155948000Y-71763000D02*
X156591000Y-71120000D01*
%TO.N,/SD_D2*%
X164338000Y-69850000D02*
X164338000Y-69088000D01*
X156948000Y-73296000D02*
X156948000Y-72067400D01*
X156948000Y-72067400D02*
X157260400Y-71755000D01*
X157260400Y-71755000D02*
X162433000Y-71755000D01*
X162433000Y-71755000D02*
X164338000Y-69850000D01*
D20*
X164338000Y-68580000D02*
X164338000Y-69088000D01*
X162941000Y-67183000D02*
X164338000Y-68580000D01*
X159848000Y-65024000D02*
X159848000Y-65614000D01*
X161417000Y-67183000D02*
X162941000Y-67183000D01*
X159848000Y-65614000D02*
X161417000Y-67183000D01*
%TO.N,/SD_D3*%
X158748000Y-65024000D02*
X158748000Y-66038000D01*
X158748000Y-66038000D02*
X161798000Y-69088000D01*
%TO.N,/SD_CMD*%
X157648000Y-65024000D02*
X157648000Y-67478000D01*
X157648000Y-67478000D02*
X159258000Y-69088000D01*
%TO.N,/SD_D1*%
X152148000Y-66673000D02*
X152148000Y-65024000D01*
X146558000Y-69088000D02*
X146558000Y-68580000D01*
X146558000Y-68580000D02*
X148209000Y-66929000D01*
X148209000Y-66929000D02*
X151892000Y-66929000D01*
X151892000Y-66929000D02*
X152148000Y-66673000D01*
%TO.N,/SD_D0*%
X150622000Y-67564000D02*
X149098000Y-69088000D01*
X153248000Y-65024000D02*
X153248000Y-66843000D01*
X153248000Y-66843000D02*
X152527000Y-67564000D01*
X152527000Y-67564000D02*
X150622000Y-67564000D01*
%TO.N,/SD_D1*%
X146558000Y-69596000D02*
X146558000Y-69088000D01*
%TD*%
%TA.AperFunction,Conductor*%
%TO.N,VBUS*%
G36*
X152469121Y-77617002D02*
G01*
X152515614Y-77670658D01*
X152527000Y-77723000D01*
X152527000Y-79376000D01*
X152506998Y-79444121D01*
X152453342Y-79490614D01*
X152401000Y-79502000D01*
X152018000Y-79502000D01*
X151949879Y-79481998D01*
X151903386Y-79428342D01*
X151892000Y-79376000D01*
X151892000Y-77723000D01*
X151912002Y-77654879D01*
X151965658Y-77608386D01*
X152018000Y-77597000D01*
X152401000Y-77597000D01*
X152469121Y-77617002D01*
G37*
%TD.AperFunction*%
%TD*%
%TA.AperFunction,Conductor*%
%TO.N,GND*%
G36*
X151405621Y-65298002D02*
G01*
X151452114Y-65351658D01*
X151463500Y-65404000D01*
X151463500Y-66024000D01*
X151483253Y-66123306D01*
X151539506Y-66207494D01*
X151623694Y-66263747D01*
X151665080Y-66271979D01*
X151727990Y-66304886D01*
X151763123Y-66366580D01*
X151766500Y-66395558D01*
X151766500Y-66421500D01*
X151746498Y-66489621D01*
X151692842Y-66536114D01*
X151640500Y-66547500D01*
X148261850Y-66547500D01*
X148241160Y-66545298D01*
X148237384Y-66545120D01*
X148227207Y-66542929D01*
X148196666Y-66546544D01*
X148195962Y-66546627D01*
X148189335Y-66547018D01*
X148189339Y-66547072D01*
X148184160Y-66547500D01*
X148178960Y-66547500D01*
X148173834Y-66548353D01*
X148173825Y-66548354D01*
X148158205Y-66550954D01*
X148152329Y-66551791D01*
X148111510Y-66556622D01*
X148111509Y-66556622D01*
X148101170Y-66557846D01*
X148092877Y-66561828D01*
X148083806Y-66563338D01*
X148074641Y-66568283D01*
X148074636Y-66568285D01*
X148038484Y-66587792D01*
X148033191Y-66590489D01*
X147993905Y-66609353D01*
X147993901Y-66609355D01*
X147986761Y-66612784D01*
X147980062Y-66618415D01*
X147978124Y-66620353D01*
X147978105Y-66620371D01*
X147972111Y-66623605D01*
X147965043Y-66631251D01*
X147965042Y-66631252D01*
X147940020Y-66658321D01*
X147936590Y-66661887D01*
X146810446Y-67788031D01*
X146748134Y-67822057D01*
X146696773Y-67822516D01*
X146678051Y-67818792D01*
X146672276Y-67818716D01*
X146672272Y-67818716D01*
X146566597Y-67817333D01*
X146467890Y-67816040D01*
X146462193Y-67817019D01*
X146462192Y-67817019D01*
X146266443Y-67850655D01*
X146260746Y-67851634D01*
X146063558Y-67924381D01*
X146058597Y-67927333D01*
X146058596Y-67927333D01*
X145887897Y-68028888D01*
X145887894Y-68028890D01*
X145882929Y-68031844D01*
X145878589Y-68035650D01*
X145878585Y-68035653D01*
X145790700Y-68112727D01*
X145724908Y-68170425D01*
X145594787Y-68335482D01*
X145592098Y-68340593D01*
X145592096Y-68340596D01*
X145559747Y-68402081D01*
X145496924Y-68521488D01*
X145495210Y-68527009D01*
X145495208Y-68527013D01*
X145486271Y-68555795D01*
X145434597Y-68722213D01*
X145414500Y-68892019D01*
X145414500Y-69269414D01*
X145428732Y-69424298D01*
X145485783Y-69626586D01*
X145578743Y-69815090D01*
X145582197Y-69819716D01*
X145582198Y-69819717D01*
X145698809Y-69975878D01*
X145704498Y-69983497D01*
X145708732Y-69987411D01*
X145708734Y-69987413D01*
X145719649Y-69997502D01*
X145858837Y-70126166D01*
X146036592Y-70238321D01*
X146041956Y-70240461D01*
X146189200Y-70299205D01*
X146231808Y-70316204D01*
X146237468Y-70317330D01*
X146237472Y-70317331D01*
X146432281Y-70356081D01*
X146432286Y-70356081D01*
X146437949Y-70357208D01*
X146443724Y-70357284D01*
X146443728Y-70357284D01*
X146549403Y-70358667D01*
X146648110Y-70359960D01*
X146653807Y-70358981D01*
X146653808Y-70358981D01*
X146849557Y-70325345D01*
X146849558Y-70325345D01*
X146855254Y-70324366D01*
X147052442Y-70251619D01*
X147057398Y-70248670D01*
X147057401Y-70248669D01*
X147060777Y-70246660D01*
X147062582Y-70246197D01*
X147062620Y-70246179D01*
X147062624Y-70246186D01*
X147129548Y-70229023D01*
X147196937Y-70251366D01*
X147214291Y-70265853D01*
X148673227Y-71724789D01*
X148686408Y-71741109D01*
X148688875Y-71743820D01*
X148694526Y-71752572D01*
X148702704Y-71759019D01*
X148702705Y-71759020D01*
X148719330Y-71772126D01*
X148723757Y-71776060D01*
X148723820Y-71775986D01*
X148727777Y-71779339D01*
X148731460Y-71783022D01*
X148735695Y-71786049D01*
X148735697Y-71786050D01*
X148747122Y-71794214D01*
X148751871Y-71797779D01*
X148782744Y-71822118D01*
X148782746Y-71822119D01*
X148790920Y-71828563D01*
X148799313Y-71831511D01*
X148806550Y-71836682D01*
X148854189Y-71850929D01*
X148859827Y-71852761D01*
X148906733Y-71869234D01*
X148913268Y-71869800D01*
X148915984Y-71869800D01*
X148917505Y-71869866D01*
X148924150Y-71871853D01*
X148973933Y-71869897D01*
X148978880Y-71869800D01*
X151306048Y-71869800D01*
X151374169Y-71889802D01*
X151395143Y-71906705D01*
X151542295Y-72053857D01*
X151576321Y-72116169D01*
X151579200Y-72142952D01*
X151579200Y-72204660D01*
X151576779Y-72229241D01*
X151563500Y-72296000D01*
X151563500Y-74296000D01*
X151583253Y-74395306D01*
X151639506Y-74479494D01*
X151649822Y-74486387D01*
X151681484Y-74507543D01*
X151723694Y-74535747D01*
X151823000Y-74555500D01*
X152073000Y-74555500D01*
X152172306Y-74535747D01*
X152214516Y-74507543D01*
X152246178Y-74486387D01*
X152256494Y-74479494D01*
X152312747Y-74395306D01*
X152324421Y-74336616D01*
X152357328Y-74273706D01*
X152419023Y-74238574D01*
X152489918Y-74242374D01*
X152547504Y-74283899D01*
X152571579Y-74336616D01*
X152583253Y-74395306D01*
X152639506Y-74479494D01*
X152649822Y-74486387D01*
X152681484Y-74507543D01*
X152723694Y-74535747D01*
X152823000Y-74555500D01*
X153073000Y-74555500D01*
X153172306Y-74535747D01*
X153214516Y-74507543D01*
X153246178Y-74486387D01*
X153256494Y-74479494D01*
X153312747Y-74395306D01*
X153324421Y-74336616D01*
X153357328Y-74273706D01*
X153419023Y-74238574D01*
X153489918Y-74242374D01*
X153547504Y-74283899D01*
X153571579Y-74336616D01*
X153583253Y-74395306D01*
X153639506Y-74479494D01*
X153649822Y-74486387D01*
X153681484Y-74507543D01*
X153723694Y-74535747D01*
X153823000Y-74555500D01*
X154073000Y-74555500D01*
X154172306Y-74535747D01*
X154214516Y-74507543D01*
X154246178Y-74486387D01*
X154256494Y-74479494D01*
X154312747Y-74395306D01*
X154324421Y-74336616D01*
X154357328Y-74273706D01*
X154419023Y-74238574D01*
X154489918Y-74242374D01*
X154547504Y-74283899D01*
X154571579Y-74336616D01*
X154583253Y-74395306D01*
X154639506Y-74479494D01*
X154649822Y-74486387D01*
X154681484Y-74507543D01*
X154723694Y-74535747D01*
X154823000Y-74555500D01*
X155073000Y-74555500D01*
X155172306Y-74535747D01*
X155214516Y-74507543D01*
X155246178Y-74486387D01*
X155256494Y-74479494D01*
X155312747Y-74395306D01*
X155324421Y-74336616D01*
X155357328Y-74273706D01*
X155419023Y-74238574D01*
X155489918Y-74242374D01*
X155547504Y-74283899D01*
X155571579Y-74336616D01*
X155583253Y-74395306D01*
X155639506Y-74479494D01*
X155649822Y-74486387D01*
X155681484Y-74507543D01*
X155723694Y-74535747D01*
X155823000Y-74555500D01*
X156073000Y-74555500D01*
X156172306Y-74535747D01*
X156214516Y-74507543D01*
X156246178Y-74486387D01*
X156256494Y-74479494D01*
X156312747Y-74395306D01*
X156324421Y-74336616D01*
X156357328Y-74273706D01*
X156419023Y-74238574D01*
X156489918Y-74242374D01*
X156547504Y-74283899D01*
X156571579Y-74336616D01*
X156583253Y-74395306D01*
X156639506Y-74479494D01*
X156649822Y-74486387D01*
X156681484Y-74507543D01*
X156723694Y-74535747D01*
X156823000Y-74555500D01*
X157073000Y-74555500D01*
X157172306Y-74535747D01*
X157214516Y-74507543D01*
X157246178Y-74486387D01*
X157256494Y-74479494D01*
X157312747Y-74395306D01*
X157324421Y-74336616D01*
X157357328Y-74273706D01*
X157419023Y-74238574D01*
X157489918Y-74242374D01*
X157547504Y-74283899D01*
X157571579Y-74336616D01*
X157576779Y-74362759D01*
X157579200Y-74387340D01*
X157579200Y-75091684D01*
X157576979Y-75112558D01*
X157576807Y-75116212D01*
X157574615Y-75126392D01*
X157575839Y-75136732D01*
X157578327Y-75157756D01*
X157578676Y-75163669D01*
X157578772Y-75163661D01*
X157579200Y-75168841D01*
X157579200Y-75174040D01*
X157580053Y-75179166D01*
X157580054Y-75179176D01*
X157582361Y-75193035D01*
X157583198Y-75198911D01*
X157589042Y-75248286D01*
X157592892Y-75256304D01*
X157594353Y-75265080D01*
X157599300Y-75274248D01*
X157617959Y-75308830D01*
X157620654Y-75314119D01*
X157638743Y-75351790D01*
X157638747Y-75351796D01*
X157642176Y-75358937D01*
X157646396Y-75363958D01*
X157648322Y-75365884D01*
X157649346Y-75367001D01*
X157652640Y-75373105D01*
X157660287Y-75380173D01*
X157660287Y-75380174D01*
X157689236Y-75406934D01*
X157692802Y-75410364D01*
X158071227Y-75788789D01*
X158084408Y-75805109D01*
X158086875Y-75807820D01*
X158092526Y-75816572D01*
X158100704Y-75823019D01*
X158100705Y-75823020D01*
X158117330Y-75836126D01*
X158121760Y-75840063D01*
X158121823Y-75839989D01*
X158125780Y-75843342D01*
X158129461Y-75847023D01*
X158141879Y-75855897D01*
X158145135Y-75858224D01*
X158149881Y-75861787D01*
X158188920Y-75892563D01*
X158197311Y-75895510D01*
X158204550Y-75900683D01*
X158214528Y-75903667D01*
X158252192Y-75914931D01*
X158257838Y-75916765D01*
X158304733Y-75933234D01*
X158311268Y-75933800D01*
X158313984Y-75933800D01*
X158315506Y-75933866D01*
X158322151Y-75935853D01*
X158371934Y-75933897D01*
X158376881Y-75933800D01*
X159332684Y-75933800D01*
X159353558Y-75936021D01*
X159357212Y-75936193D01*
X159367392Y-75938385D01*
X159392241Y-75935444D01*
X159398756Y-75934673D01*
X159404669Y-75934324D01*
X159404661Y-75934228D01*
X159409841Y-75933800D01*
X159415040Y-75933800D01*
X159420166Y-75932947D01*
X159420176Y-75932946D01*
X159434035Y-75930639D01*
X159439911Y-75929802D01*
X159462291Y-75927153D01*
X159489286Y-75923958D01*
X159497304Y-75920108D01*
X159506080Y-75918647D01*
X159549839Y-75895037D01*
X159555119Y-75892346D01*
X159592790Y-75874257D01*
X159592796Y-75874253D01*
X159599937Y-75870824D01*
X159604958Y-75866604D01*
X159606884Y-75864678D01*
X159608001Y-75863654D01*
X159614105Y-75860360D01*
X159647935Y-75823763D01*
X159651364Y-75820198D01*
X160180289Y-75291273D01*
X160196609Y-75278092D01*
X160199320Y-75275625D01*
X160208072Y-75269974D01*
X160222861Y-75251215D01*
X160227626Y-75245170D01*
X160231563Y-75240740D01*
X160231489Y-75240677D01*
X160234842Y-75236720D01*
X160238522Y-75233040D01*
X160249724Y-75217365D01*
X160253290Y-75212615D01*
X160277615Y-75181760D01*
X160277617Y-75181757D01*
X160284063Y-75173580D01*
X160287010Y-75165189D01*
X160292183Y-75157950D01*
X160306431Y-75110308D01*
X160308266Y-75104660D01*
X160322107Y-75065247D01*
X160324734Y-75057767D01*
X160325300Y-75051232D01*
X160325300Y-75048516D01*
X160325366Y-75046994D01*
X160327353Y-75040349D01*
X160325397Y-74990566D01*
X160325300Y-74985619D01*
X160325300Y-74690452D01*
X160345302Y-74622331D01*
X160362205Y-74601357D01*
X161405857Y-73557705D01*
X161468169Y-73523679D01*
X161494952Y-73520800D01*
X164793684Y-73520800D01*
X164814558Y-73523021D01*
X164818212Y-73523193D01*
X164828392Y-73525385D01*
X164851670Y-73522630D01*
X164859756Y-73521673D01*
X164865669Y-73521324D01*
X164865661Y-73521228D01*
X164870841Y-73520800D01*
X164876040Y-73520800D01*
X164881166Y-73519947D01*
X164881176Y-73519946D01*
X164895035Y-73517639D01*
X164900911Y-73516802D01*
X164923291Y-73514153D01*
X164950286Y-73510958D01*
X164958304Y-73507108D01*
X164967080Y-73505647D01*
X165010839Y-73482037D01*
X165016119Y-73479346D01*
X165053790Y-73461257D01*
X165053796Y-73461253D01*
X165060937Y-73457824D01*
X165065958Y-73453604D01*
X165067884Y-73451678D01*
X165069001Y-73450654D01*
X165075105Y-73447360D01*
X165108935Y-73410763D01*
X165112364Y-73407198D01*
X166739857Y-71779705D01*
X166802169Y-71745679D01*
X166828952Y-71742800D01*
X166850212Y-71742800D01*
X166918333Y-71762802D01*
X166964826Y-71816458D01*
X166968424Y-71825189D01*
X166984381Y-71868442D01*
X166987333Y-71873403D01*
X166987333Y-71873404D01*
X167075339Y-72021328D01*
X167091844Y-72049071D01*
X167095650Y-72053411D01*
X167095653Y-72053415D01*
X167192067Y-72163353D01*
X167230425Y-72207092D01*
X167234960Y-72210667D01*
X167234961Y-72210668D01*
X167256315Y-72227502D01*
X167395482Y-72337213D01*
X167400593Y-72339902D01*
X167400596Y-72339904D01*
X167502477Y-72393506D01*
X167581488Y-72435076D01*
X167587009Y-72436790D01*
X167587013Y-72436792D01*
X167754888Y-72488918D01*
X167782213Y-72497403D01*
X167952019Y-72517500D01*
X168329414Y-72517500D01*
X168484298Y-72503268D01*
X168489860Y-72501699D01*
X168489862Y-72501699D01*
X168585442Y-72474742D01*
X168686586Y-72446217D01*
X168875090Y-72353257D01*
X168935562Y-72308101D01*
X169038873Y-72230955D01*
X169038874Y-72230954D01*
X169043497Y-72227502D01*
X169048916Y-72221640D01*
X169182247Y-72077403D01*
X169182249Y-72077400D01*
X169186166Y-72073163D01*
X169298321Y-71895408D01*
X169376204Y-71700192D01*
X169377331Y-71694528D01*
X169416081Y-71499719D01*
X169416081Y-71499714D01*
X169417208Y-71494051D01*
X169417462Y-71474708D01*
X169419072Y-71351703D01*
X169419960Y-71283890D01*
X169384366Y-71076746D01*
X169311619Y-70879558D01*
X169296421Y-70854013D01*
X169207112Y-70703897D01*
X169207110Y-70703894D01*
X169204156Y-70698929D01*
X169200350Y-70694589D01*
X169200347Y-70694585D01*
X169069382Y-70545249D01*
X169065575Y-70540908D01*
X169059483Y-70536105D01*
X169008792Y-70496144D01*
X168900518Y-70410787D01*
X168895407Y-70408098D01*
X168895404Y-70408096D01*
X168738120Y-70325345D01*
X168714512Y-70312924D01*
X168708991Y-70311210D01*
X168708987Y-70311208D01*
X168519310Y-70252312D01*
X168519311Y-70252312D01*
X168513787Y-70250597D01*
X168343981Y-70230500D01*
X167966586Y-70230500D01*
X167811702Y-70244732D01*
X167806140Y-70246301D01*
X167806138Y-70246301D01*
X167710558Y-70273258D01*
X167609414Y-70301783D01*
X167591947Y-70310397D01*
X167489634Y-70360852D01*
X167419692Y-70373042D01*
X167354263Y-70345483D01*
X167314119Y-70286925D01*
X167312007Y-70215960D01*
X167344811Y-70158751D01*
X167489157Y-70014405D01*
X167551469Y-69980379D01*
X167578252Y-69977500D01*
X169019457Y-69977500D01*
X169024104Y-69976801D01*
X169024109Y-69976801D01*
X169105473Y-69964568D01*
X169105474Y-69964568D01*
X169114784Y-69963168D01*
X169231999Y-69906882D01*
X169248176Y-69891928D01*
X169320569Y-69825010D01*
X169320571Y-69825007D01*
X169327482Y-69818619D01*
X169392791Y-69706181D01*
X169418500Y-69595266D01*
X169418500Y-68089543D01*
X169404168Y-67994216D01*
X169347882Y-67877001D01*
X169329878Y-67857524D01*
X169266010Y-67788431D01*
X169266007Y-67788429D01*
X169259619Y-67781518D01*
X169235503Y-67767510D01*
X169158559Y-67722818D01*
X169147181Y-67716209D01*
X169036266Y-67690500D01*
X167276543Y-67690500D01*
X167271896Y-67691199D01*
X167271891Y-67691199D01*
X167190527Y-67703432D01*
X167190526Y-67703432D01*
X167181216Y-67704832D01*
X167064001Y-67761118D01*
X167057086Y-67767510D01*
X166975431Y-67842990D01*
X166975429Y-67842993D01*
X166968518Y-67849381D01*
X166963789Y-67857523D01*
X166963788Y-67857524D01*
X166961334Y-67861749D01*
X166903209Y-67961819D01*
X166877500Y-68072734D01*
X166877500Y-69530749D01*
X166857498Y-69598870D01*
X166840595Y-69619844D01*
X164349144Y-72111295D01*
X164286832Y-72145321D01*
X164260049Y-72148200D01*
X162865552Y-72148200D01*
X162797431Y-72128198D01*
X162750938Y-72074542D01*
X162740834Y-72004268D01*
X162770328Y-71939688D01*
X162776457Y-71933105D01*
X164314157Y-70395405D01*
X164376469Y-70361379D01*
X164403252Y-70358500D01*
X165082457Y-70358500D01*
X165087104Y-70357801D01*
X165087109Y-70357801D01*
X165168473Y-70345568D01*
X165168474Y-70345568D01*
X165177784Y-70344168D01*
X165294999Y-70287882D01*
X165317068Y-70267482D01*
X165383569Y-70206010D01*
X165383571Y-70206007D01*
X165390482Y-70199619D01*
X165455791Y-70087181D01*
X165481500Y-69976266D01*
X165481500Y-68216543D01*
X165476918Y-68186063D01*
X165468568Y-68130527D01*
X165468568Y-68130526D01*
X165467168Y-68121216D01*
X165410882Y-68004001D01*
X165404490Y-67997086D01*
X165329010Y-67915431D01*
X165329007Y-67915429D01*
X165322619Y-67908518D01*
X165314294Y-67903682D01*
X165282975Y-67885491D01*
X165210181Y-67843209D01*
X165099266Y-67817500D01*
X164167213Y-67817500D01*
X164099092Y-67797498D01*
X164078117Y-67780595D01*
X163248127Y-66950604D01*
X163235063Y-66934428D01*
X163232514Y-66931627D01*
X163226867Y-66922881D01*
X163218692Y-66916436D01*
X163218690Y-66916434D01*
X163202161Y-66903404D01*
X163197195Y-66898991D01*
X163197160Y-66899032D01*
X163193197Y-66895674D01*
X163189520Y-66891997D01*
X163172370Y-66879742D01*
X163167647Y-66876196D01*
X163135375Y-66850753D01*
X163135373Y-66850752D01*
X163127198Y-66844307D01*
X163118520Y-66841260D01*
X163111037Y-66835912D01*
X163101059Y-66832928D01*
X163101055Y-66832926D01*
X163061694Y-66821155D01*
X163056046Y-66819320D01*
X163014933Y-66804882D01*
X163014930Y-66804881D01*
X163007451Y-66802255D01*
X162998733Y-66801500D01*
X162995992Y-66801500D01*
X162995968Y-66801499D01*
X162989441Y-66799547D01*
X162942206Y-66801403D01*
X162937259Y-66801500D01*
X161627213Y-66801500D01*
X161559092Y-66781498D01*
X161538118Y-66764595D01*
X160569405Y-65795882D01*
X160535379Y-65733570D01*
X160532500Y-65706787D01*
X160532500Y-65404000D01*
X160552502Y-65335879D01*
X160606158Y-65289386D01*
X160658500Y-65278000D01*
X169800000Y-65278000D01*
X169868121Y-65298002D01*
X169914614Y-65351658D01*
X169926000Y-65404000D01*
X169926000Y-82932000D01*
X169905998Y-83000121D01*
X169852342Y-83046614D01*
X169800000Y-83058000D01*
X141096000Y-83058000D01*
X141027879Y-83037998D01*
X140981386Y-82984342D01*
X140970000Y-82932000D01*
X140970000Y-74004110D01*
X141476040Y-74004110D01*
X141477019Y-74009807D01*
X141477019Y-74009808D01*
X141496990Y-74126033D01*
X141511634Y-74211254D01*
X141584381Y-74408442D01*
X141587333Y-74413403D01*
X141587333Y-74413404D01*
X141670347Y-74552937D01*
X141691844Y-74589071D01*
X141695650Y-74593411D01*
X141695653Y-74593415D01*
X141721012Y-74622331D01*
X141830425Y-74747092D01*
X141834960Y-74750667D01*
X141834961Y-74750668D01*
X141856315Y-74767502D01*
X141995482Y-74877213D01*
X142000593Y-74879902D01*
X142000596Y-74879904D01*
X142102477Y-74933506D01*
X142181488Y-74975076D01*
X142187009Y-74976790D01*
X142187013Y-74976792D01*
X142275823Y-75004368D01*
X142382213Y-75037403D01*
X142552019Y-75057500D01*
X142929414Y-75057500D01*
X143084298Y-75043268D01*
X143224926Y-75003607D01*
X143295917Y-75004368D01*
X143348220Y-75035782D01*
X143551928Y-75239490D01*
X143585954Y-75301802D01*
X143580889Y-75372617D01*
X143538342Y-75429453D01*
X143471822Y-75454264D01*
X143404165Y-75440093D01*
X143376396Y-75425483D01*
X143314512Y-75392924D01*
X143308991Y-75391210D01*
X143308987Y-75391208D01*
X143119310Y-75332312D01*
X143119311Y-75332312D01*
X143113787Y-75330597D01*
X142943981Y-75310500D01*
X142566586Y-75310500D01*
X142411702Y-75324732D01*
X142406140Y-75326301D01*
X142406138Y-75326301D01*
X142390906Y-75330597D01*
X142209414Y-75381783D01*
X142020910Y-75474743D01*
X141852503Y-75600498D01*
X141709834Y-75754837D01*
X141597679Y-75932592D01*
X141519796Y-76127808D01*
X141518670Y-76133468D01*
X141518669Y-76133472D01*
X141490859Y-76273286D01*
X141478792Y-76333949D01*
X141478716Y-76339724D01*
X141478716Y-76339728D01*
X141478400Y-76363890D01*
X141476040Y-76544110D01*
X141511634Y-76751254D01*
X141584381Y-76948442D01*
X141691844Y-77129071D01*
X141695650Y-77133411D01*
X141695653Y-77133415D01*
X141804270Y-77257268D01*
X141830425Y-77287092D01*
X141834960Y-77290667D01*
X141834961Y-77290668D01*
X141856315Y-77307502D01*
X141995482Y-77417213D01*
X142000593Y-77419902D01*
X142000596Y-77419904D01*
X142102477Y-77473506D01*
X142181488Y-77515076D01*
X142187009Y-77516790D01*
X142187013Y-77516792D01*
X142311300Y-77555384D01*
X142382213Y-77577403D01*
X142552019Y-77597500D01*
X142929414Y-77597500D01*
X143084298Y-77583268D01*
X143089860Y-77581699D01*
X143089862Y-77581699D01*
X143281021Y-77527787D01*
X143281026Y-77527785D01*
X143286586Y-77526217D01*
X143291766Y-77523662D01*
X143291775Y-77523659D01*
X143298751Y-77520219D01*
X143368694Y-77508032D01*
X143434123Y-77535594D01*
X143443570Y-77544132D01*
X144309543Y-78410105D01*
X144343569Y-78472417D01*
X144338504Y-78543232D01*
X144295957Y-78600068D01*
X144229437Y-78624879D01*
X144220448Y-78625200D01*
X144045788Y-78625200D01*
X143977667Y-78605198D01*
X143931174Y-78551542D01*
X143927576Y-78542811D01*
X143913617Y-78504974D01*
X143911619Y-78499558D01*
X143884766Y-78454422D01*
X143807112Y-78323897D01*
X143807110Y-78323894D01*
X143804156Y-78318929D01*
X143800350Y-78314589D01*
X143800347Y-78314585D01*
X143669382Y-78165249D01*
X143665575Y-78160908D01*
X143645059Y-78144734D01*
X143505055Y-78034364D01*
X143500518Y-78030787D01*
X143495407Y-78028098D01*
X143495404Y-78028096D01*
X143393523Y-77974494D01*
X143314512Y-77932924D01*
X143308991Y-77931210D01*
X143308987Y-77931208D01*
X143119310Y-77872312D01*
X143119311Y-77872312D01*
X143113787Y-77870597D01*
X142943981Y-77850500D01*
X142566586Y-77850500D01*
X142411702Y-77864732D01*
X142406140Y-77866301D01*
X142406138Y-77866301D01*
X142390906Y-77870597D01*
X142209414Y-77921783D01*
X142020910Y-78014743D01*
X141852503Y-78140498D01*
X141848589Y-78144732D01*
X141848587Y-78144734D01*
X141732394Y-78270432D01*
X141709834Y-78294837D01*
X141597679Y-78472592D01*
X141519796Y-78667808D01*
X141518670Y-78673468D01*
X141518669Y-78673472D01*
X141486033Y-78837548D01*
X141478792Y-78873949D01*
X141478716Y-78879724D01*
X141478716Y-78879728D01*
X141478400Y-78903890D01*
X141476040Y-79084110D01*
X141511634Y-79291254D01*
X141584381Y-79488442D01*
X141587333Y-79493403D01*
X141587333Y-79493404D01*
X141688089Y-79662759D01*
X141691844Y-79669071D01*
X141695650Y-79673411D01*
X141695653Y-79673415D01*
X141799502Y-79791831D01*
X141830425Y-79827092D01*
X141834960Y-79830667D01*
X141834961Y-79830668D01*
X141856315Y-79847502D01*
X141995482Y-79957213D01*
X142000593Y-79959902D01*
X142000596Y-79959904D01*
X142053082Y-79987518D01*
X142181488Y-80055076D01*
X142187009Y-80056790D01*
X142187013Y-80056792D01*
X142344665Y-80105744D01*
X142382213Y-80117403D01*
X142552019Y-80137500D01*
X142929414Y-80137500D01*
X143084298Y-80123268D01*
X143089860Y-80121699D01*
X143089862Y-80121699D01*
X143233297Y-80081246D01*
X143286586Y-80066217D01*
X143475090Y-79973257D01*
X143542661Y-79922800D01*
X143638873Y-79850955D01*
X143638874Y-79850954D01*
X143643497Y-79847502D01*
X143650484Y-79839944D01*
X143782247Y-79697403D01*
X143782249Y-79697400D01*
X143786166Y-79693163D01*
X143898321Y-79515408D01*
X143907736Y-79491808D01*
X143927564Y-79442110D01*
X143971385Y-79386250D01*
X144044594Y-79362800D01*
X144067048Y-79362800D01*
X144135169Y-79382802D01*
X144156143Y-79399705D01*
X145706543Y-80950105D01*
X145740569Y-81012417D01*
X145735504Y-81083232D01*
X145692957Y-81140068D01*
X145626437Y-81164879D01*
X145617448Y-81165200D01*
X144045788Y-81165200D01*
X143977667Y-81145198D01*
X143931174Y-81091542D01*
X143927576Y-81082811D01*
X143913617Y-81044974D01*
X143911619Y-81039558D01*
X143898767Y-81017956D01*
X143807112Y-80863897D01*
X143807110Y-80863894D01*
X143804156Y-80858929D01*
X143800350Y-80854589D01*
X143800347Y-80854585D01*
X143669382Y-80705249D01*
X143665575Y-80700908D01*
X143645059Y-80684734D01*
X143606479Y-80654320D01*
X143500518Y-80570787D01*
X143495407Y-80568098D01*
X143495404Y-80568096D01*
X143376396Y-80505483D01*
X143314512Y-80472924D01*
X143308991Y-80471210D01*
X143308987Y-80471208D01*
X143119310Y-80412312D01*
X143119311Y-80412312D01*
X143113787Y-80410597D01*
X142943981Y-80390500D01*
X142566586Y-80390500D01*
X142411702Y-80404732D01*
X142406140Y-80406301D01*
X142406138Y-80406301D01*
X142310558Y-80433257D01*
X142209414Y-80461783D01*
X142020910Y-80554743D01*
X141852503Y-80680498D01*
X141848589Y-80684732D01*
X141848587Y-80684734D01*
X141736453Y-80806041D01*
X141709834Y-80834837D01*
X141597679Y-81012592D01*
X141519796Y-81207808D01*
X141518670Y-81213468D01*
X141518669Y-81213472D01*
X141493547Y-81339773D01*
X141478792Y-81413949D01*
X141478716Y-81419724D01*
X141478716Y-81419728D01*
X141478400Y-81443890D01*
X141476040Y-81624110D01*
X141477019Y-81629807D01*
X141477019Y-81629808D01*
X141507934Y-81809722D01*
X141511634Y-81831254D01*
X141584381Y-82028442D01*
X141691844Y-82209071D01*
X141695650Y-82213411D01*
X141695653Y-82213415D01*
X141826618Y-82362751D01*
X141830425Y-82367092D01*
X141834960Y-82370667D01*
X141834961Y-82370668D01*
X141856315Y-82387502D01*
X141995482Y-82497213D01*
X142000593Y-82499902D01*
X142000596Y-82499904D01*
X142102477Y-82553506D01*
X142181488Y-82595076D01*
X142187009Y-82596790D01*
X142187013Y-82596792D01*
X142348030Y-82646789D01*
X142382213Y-82657403D01*
X142552019Y-82677500D01*
X142929414Y-82677500D01*
X143084298Y-82663268D01*
X143089860Y-82661699D01*
X143089862Y-82661699D01*
X143185442Y-82634742D01*
X143286586Y-82606217D01*
X143475090Y-82513257D01*
X143643497Y-82387502D01*
X143786166Y-82233163D01*
X143898321Y-82055408D01*
X143911240Y-82023026D01*
X143927564Y-81982110D01*
X143971385Y-81926250D01*
X144044594Y-81902800D01*
X145464048Y-81902800D01*
X145532169Y-81922802D01*
X145553143Y-81939705D01*
X146260227Y-82646789D01*
X146273408Y-82663109D01*
X146275875Y-82665820D01*
X146281526Y-82674572D01*
X146289704Y-82681019D01*
X146289705Y-82681020D01*
X146306330Y-82694126D01*
X146310760Y-82698063D01*
X146310823Y-82697989D01*
X146314780Y-82701342D01*
X146318461Y-82705023D01*
X146330879Y-82713897D01*
X146334135Y-82716224D01*
X146338881Y-82719787D01*
X146377920Y-82750563D01*
X146386311Y-82753510D01*
X146393550Y-82758683D01*
X146403528Y-82761667D01*
X146441192Y-82772931D01*
X146446838Y-82774765D01*
X146493733Y-82791234D01*
X146500268Y-82791800D01*
X146502984Y-82791800D01*
X146504506Y-82791866D01*
X146511151Y-82793853D01*
X146560934Y-82791897D01*
X146565881Y-82791800D01*
X155014684Y-82791800D01*
X155035558Y-82794021D01*
X155039212Y-82794193D01*
X155049392Y-82796385D01*
X155074241Y-82793444D01*
X155080756Y-82792673D01*
X155086669Y-82792324D01*
X155086661Y-82792228D01*
X155091841Y-82791800D01*
X155097040Y-82791800D01*
X155102166Y-82790947D01*
X155102176Y-82790946D01*
X155116035Y-82788639D01*
X155121911Y-82787802D01*
X155144291Y-82785153D01*
X155171286Y-82781958D01*
X155179304Y-82778108D01*
X155188080Y-82776647D01*
X155231839Y-82753037D01*
X155237119Y-82750346D01*
X155274790Y-82732257D01*
X155274796Y-82732253D01*
X155281937Y-82728824D01*
X155286958Y-82724604D01*
X155288884Y-82722678D01*
X155290001Y-82721654D01*
X155296105Y-82718360D01*
X155329935Y-82681763D01*
X155333364Y-82678198D01*
X156671789Y-81339773D01*
X156688109Y-81326592D01*
X156690820Y-81324125D01*
X156699572Y-81318474D01*
X156719126Y-81293670D01*
X156723063Y-81289240D01*
X156722989Y-81289177D01*
X156726344Y-81285218D01*
X156730023Y-81281539D01*
X156739403Y-81268413D01*
X156795281Y-81224619D01*
X156865967Y-81217986D01*
X156931013Y-81252575D01*
X157436227Y-81757789D01*
X157449408Y-81774109D01*
X157451875Y-81776820D01*
X157457526Y-81785572D01*
X157465704Y-81792019D01*
X157465705Y-81792020D01*
X157482330Y-81805126D01*
X157486758Y-81809061D01*
X157486821Y-81808987D01*
X157490777Y-81812339D01*
X157494461Y-81816023D01*
X157510136Y-81827224D01*
X157514875Y-81830783D01*
X157545739Y-81855114D01*
X157545741Y-81855115D01*
X157553920Y-81861563D01*
X157562312Y-81864510D01*
X157569551Y-81869683D01*
X157617190Y-81883930D01*
X157622835Y-81885764D01*
X157669733Y-81902234D01*
X157676268Y-81902800D01*
X157678984Y-81902800D01*
X157680506Y-81902866D01*
X157687151Y-81904853D01*
X157736934Y-81902897D01*
X157741881Y-81902800D01*
X166850212Y-81902800D01*
X166918333Y-81922802D01*
X166964826Y-81976458D01*
X166968424Y-81985189D01*
X166984381Y-82028442D01*
X167091844Y-82209071D01*
X167095650Y-82213411D01*
X167095653Y-82213415D01*
X167226618Y-82362751D01*
X167230425Y-82367092D01*
X167234960Y-82370667D01*
X167234961Y-82370668D01*
X167256315Y-82387502D01*
X167395482Y-82497213D01*
X167400593Y-82499902D01*
X167400596Y-82499904D01*
X167502477Y-82553506D01*
X167581488Y-82595076D01*
X167587009Y-82596790D01*
X167587013Y-82596792D01*
X167748030Y-82646789D01*
X167782213Y-82657403D01*
X167952019Y-82677500D01*
X168329414Y-82677500D01*
X168484298Y-82663268D01*
X168489860Y-82661699D01*
X168489862Y-82661699D01*
X168585442Y-82634742D01*
X168686586Y-82606217D01*
X168875090Y-82513257D01*
X169043497Y-82387502D01*
X169186166Y-82233163D01*
X169298321Y-82055408D01*
X169359158Y-81902918D01*
X169374064Y-81865556D01*
X169376204Y-81860192D01*
X169377331Y-81854528D01*
X169416081Y-81659719D01*
X169416081Y-81659714D01*
X169417208Y-81654051D01*
X169417526Y-81629808D01*
X169419884Y-81449672D01*
X169419960Y-81443890D01*
X169399805Y-81326592D01*
X169385345Y-81242443D01*
X169385345Y-81242442D01*
X169384366Y-81236746D01*
X169311619Y-81039558D01*
X169298767Y-81017956D01*
X169207112Y-80863897D01*
X169207110Y-80863894D01*
X169204156Y-80858929D01*
X169200350Y-80854589D01*
X169200347Y-80854585D01*
X169069382Y-80705249D01*
X169065575Y-80700908D01*
X169045059Y-80684734D01*
X169006479Y-80654320D01*
X168900518Y-80570787D01*
X168895407Y-80568098D01*
X168895404Y-80568096D01*
X168776396Y-80505483D01*
X168714512Y-80472924D01*
X168708991Y-80471210D01*
X168708987Y-80471208D01*
X168519310Y-80412312D01*
X168519311Y-80412312D01*
X168513787Y-80410597D01*
X168343981Y-80390500D01*
X167966586Y-80390500D01*
X167811702Y-80404732D01*
X167806140Y-80406301D01*
X167806138Y-80406301D01*
X167710558Y-80433257D01*
X167609414Y-80461783D01*
X167604231Y-80464339D01*
X167489634Y-80520852D01*
X167419692Y-80533042D01*
X167354263Y-80505483D01*
X167314119Y-80446925D01*
X167312007Y-80375960D01*
X167344811Y-80318751D01*
X167548290Y-80115272D01*
X167610602Y-80081246D01*
X167674750Y-80084035D01*
X167776691Y-80115689D01*
X167776697Y-80115690D01*
X167782213Y-80117403D01*
X167787948Y-80118082D01*
X167787949Y-80118082D01*
X167818511Y-80121699D01*
X167952019Y-80137500D01*
X168329414Y-80137500D01*
X168484298Y-80123268D01*
X168489860Y-80121699D01*
X168489862Y-80121699D01*
X168633297Y-80081246D01*
X168686586Y-80066217D01*
X168875090Y-79973257D01*
X168942661Y-79922800D01*
X169038873Y-79850955D01*
X169038874Y-79850954D01*
X169043497Y-79847502D01*
X169050484Y-79839944D01*
X169182247Y-79697403D01*
X169182249Y-79697400D01*
X169186166Y-79693163D01*
X169298321Y-79515408D01*
X169376204Y-79320192D01*
X169377331Y-79314528D01*
X169416081Y-79119719D01*
X169416081Y-79119714D01*
X169417208Y-79114051D01*
X169417526Y-79089808D01*
X169419884Y-78909672D01*
X169419960Y-78903890D01*
X169384366Y-78696746D01*
X169311619Y-78499558D01*
X169284766Y-78454422D01*
X169207112Y-78323897D01*
X169207110Y-78323894D01*
X169204156Y-78318929D01*
X169200350Y-78314589D01*
X169200347Y-78314585D01*
X169069382Y-78165249D01*
X169065575Y-78160908D01*
X169045059Y-78144734D01*
X168905055Y-78034364D01*
X168900518Y-78030787D01*
X168895407Y-78028098D01*
X168895404Y-78028096D01*
X168793523Y-77974494D01*
X168714512Y-77932924D01*
X168708991Y-77931210D01*
X168708987Y-77931208D01*
X168519310Y-77872312D01*
X168519311Y-77872312D01*
X168513787Y-77870597D01*
X168343981Y-77850500D01*
X167966586Y-77850500D01*
X167811702Y-77864732D01*
X167806140Y-77866301D01*
X167806138Y-77866301D01*
X167790906Y-77870597D01*
X167609414Y-77921783D01*
X167420910Y-78014743D01*
X167252503Y-78140498D01*
X167248589Y-78144732D01*
X167248587Y-78144734D01*
X167132394Y-78270432D01*
X167109834Y-78294837D01*
X166997679Y-78472592D01*
X166919796Y-78667808D01*
X166918670Y-78673468D01*
X166918669Y-78673472D01*
X166886033Y-78837548D01*
X166878792Y-78873949D01*
X166878716Y-78879724D01*
X166878716Y-78879728D01*
X166878400Y-78903890D01*
X166876040Y-79084110D01*
X166911634Y-79291254D01*
X166984381Y-79488442D01*
X166987330Y-79493398D01*
X166987331Y-79493401D01*
X166989340Y-79496777D01*
X166989803Y-79498582D01*
X166989821Y-79498620D01*
X166989814Y-79498624D01*
X167006977Y-79565548D01*
X166984634Y-79632937D01*
X166970153Y-79650285D01*
X166000143Y-80620296D01*
X165937832Y-80654320D01*
X165911049Y-80657200D01*
X165786552Y-80657200D01*
X165718431Y-80637198D01*
X165671938Y-80583542D01*
X165661834Y-80513268D01*
X165691328Y-80448688D01*
X165697457Y-80442105D01*
X166466789Y-79672773D01*
X166483109Y-79659592D01*
X166485820Y-79657125D01*
X166494572Y-79651474D01*
X166502672Y-79641200D01*
X166514126Y-79626670D01*
X166518063Y-79622240D01*
X166517989Y-79622177D01*
X166521342Y-79618220D01*
X166525022Y-79614540D01*
X166532336Y-79604305D01*
X166536224Y-79598865D01*
X166539790Y-79594115D01*
X166564115Y-79563260D01*
X166564117Y-79563257D01*
X166570563Y-79555080D01*
X166573510Y-79546689D01*
X166578683Y-79539450D01*
X166584413Y-79520291D01*
X166592931Y-79491808D01*
X166594766Y-79486160D01*
X166608607Y-79446747D01*
X166611234Y-79439267D01*
X166611800Y-79432732D01*
X166611800Y-79430016D01*
X166611866Y-79428494D01*
X166613853Y-79421849D01*
X166611897Y-79372066D01*
X166611800Y-79367119D01*
X166611800Y-78436952D01*
X166631802Y-78368831D01*
X166648705Y-78347857D01*
X167451649Y-77544913D01*
X167513961Y-77510887D01*
X167580928Y-77516880D01*
X167581488Y-77515076D01*
X167782213Y-77577403D01*
X167952019Y-77597500D01*
X168329414Y-77597500D01*
X168484298Y-77583268D01*
X168489860Y-77581699D01*
X168489862Y-77581699D01*
X168586522Y-77554438D01*
X168686586Y-77526217D01*
X168875090Y-77433257D01*
X168955221Y-77373421D01*
X169038873Y-77310955D01*
X169038874Y-77310954D01*
X169043497Y-77307502D01*
X169108134Y-77237578D01*
X169182247Y-77157403D01*
X169182249Y-77157400D01*
X169186166Y-77153163D01*
X169298321Y-76975408D01*
X169376204Y-76780192D01*
X169377331Y-76774528D01*
X169416081Y-76579719D01*
X169416081Y-76579714D01*
X169417208Y-76574051D01*
X169417455Y-76555239D01*
X169419884Y-76369672D01*
X169419960Y-76363890D01*
X169404635Y-76274701D01*
X169385345Y-76162443D01*
X169385345Y-76162442D01*
X169384366Y-76156746D01*
X169311619Y-75959558D01*
X169296233Y-75933697D01*
X169207112Y-75783897D01*
X169207110Y-75783894D01*
X169204156Y-75778929D01*
X169200350Y-75774589D01*
X169200347Y-75774585D01*
X169069382Y-75625249D01*
X169065575Y-75620908D01*
X169045059Y-75604734D01*
X168905055Y-75494364D01*
X168900518Y-75490787D01*
X168895407Y-75488098D01*
X168895404Y-75488096D01*
X168776396Y-75425483D01*
X168714512Y-75392924D01*
X168708991Y-75391210D01*
X168708987Y-75391208D01*
X168519310Y-75332312D01*
X168519311Y-75332312D01*
X168513787Y-75330597D01*
X168343981Y-75310500D01*
X167966586Y-75310500D01*
X167811702Y-75324732D01*
X167806140Y-75326301D01*
X167806138Y-75326301D01*
X167790906Y-75330597D01*
X167609414Y-75381783D01*
X167604231Y-75384339D01*
X167489634Y-75440852D01*
X167419692Y-75453042D01*
X167354263Y-75425483D01*
X167314119Y-75366925D01*
X167312007Y-75295960D01*
X167344811Y-75238751D01*
X167548290Y-75035272D01*
X167610602Y-75001246D01*
X167674750Y-75004035D01*
X167776691Y-75035689D01*
X167776697Y-75035690D01*
X167782213Y-75037403D01*
X167787948Y-75038082D01*
X167787949Y-75038082D01*
X167818511Y-75041699D01*
X167952019Y-75057500D01*
X168329414Y-75057500D01*
X168484298Y-75043268D01*
X168489860Y-75041699D01*
X168489862Y-75041699D01*
X168623408Y-75004035D01*
X168686586Y-74986217D01*
X168875090Y-74893257D01*
X169043497Y-74767502D01*
X169162965Y-74638262D01*
X169182247Y-74617403D01*
X169182249Y-74617400D01*
X169186166Y-74613163D01*
X169298321Y-74435408D01*
X169376204Y-74240192D01*
X169378086Y-74230733D01*
X169416081Y-74039719D01*
X169416081Y-74039714D01*
X169417208Y-74034051D01*
X169417305Y-74026703D01*
X169419884Y-73829672D01*
X169419960Y-73823890D01*
X169384366Y-73616746D01*
X169311619Y-73419558D01*
X169204156Y-73238929D01*
X169200350Y-73234589D01*
X169200347Y-73234585D01*
X169069382Y-73085249D01*
X169065575Y-73080908D01*
X169045059Y-73064734D01*
X168905055Y-72954364D01*
X168900518Y-72950787D01*
X168895407Y-72948098D01*
X168895404Y-72948096D01*
X168793523Y-72894494D01*
X168714512Y-72852924D01*
X168708991Y-72851210D01*
X168708987Y-72851208D01*
X168519310Y-72792312D01*
X168519311Y-72792312D01*
X168513787Y-72790597D01*
X168343981Y-72770500D01*
X167966586Y-72770500D01*
X167811702Y-72784732D01*
X167806140Y-72786301D01*
X167806138Y-72786301D01*
X167790906Y-72790597D01*
X167609414Y-72841783D01*
X167420910Y-72934743D01*
X167252503Y-73060498D01*
X167109834Y-73214837D01*
X166997679Y-73392592D01*
X166919796Y-73587808D01*
X166918670Y-73593468D01*
X166918669Y-73593472D01*
X166912907Y-73622443D01*
X166878792Y-73793949D01*
X166878716Y-73799724D01*
X166878716Y-73799728D01*
X166878400Y-73823890D01*
X166876040Y-74004110D01*
X166877019Y-74009807D01*
X166877019Y-74009808D01*
X166896990Y-74126033D01*
X166911634Y-74211254D01*
X166984381Y-74408442D01*
X166987330Y-74413398D01*
X166987331Y-74413401D01*
X166989340Y-74416777D01*
X166989803Y-74418582D01*
X166989821Y-74418620D01*
X166989814Y-74418624D01*
X167006977Y-74485548D01*
X166984634Y-74552937D01*
X166970147Y-74570291D01*
X165511212Y-76029226D01*
X165494875Y-76042421D01*
X165492176Y-76044877D01*
X165483428Y-76050526D01*
X165476982Y-76058703D01*
X165463871Y-76075334D01*
X165459935Y-76079763D01*
X165460009Y-76079826D01*
X165456654Y-76083785D01*
X165452978Y-76087461D01*
X165449960Y-76091684D01*
X165449955Y-76091690D01*
X165441777Y-76103134D01*
X165438216Y-76107878D01*
X165407437Y-76146920D01*
X165404490Y-76155311D01*
X165399317Y-76162550D01*
X165396333Y-76172528D01*
X165385069Y-76210192D01*
X165383235Y-76215838D01*
X165366766Y-76262733D01*
X165366200Y-76269268D01*
X165366200Y-76271984D01*
X165366134Y-76273506D01*
X165364147Y-76280151D01*
X165364556Y-76290558D01*
X165366103Y-76329934D01*
X165366200Y-76334881D01*
X165366200Y-78916047D01*
X165346198Y-78984168D01*
X165329296Y-79005142D01*
X164730144Y-79604295D01*
X164667831Y-79638320D01*
X164641048Y-79641200D01*
X159462953Y-79641200D01*
X159394832Y-79621198D01*
X159373868Y-79604305D01*
X159369415Y-79599853D01*
X159335383Y-79537545D01*
X159332500Y-79510748D01*
X159332500Y-77846000D01*
X159588500Y-77846000D01*
X159609268Y-78003750D01*
X159670158Y-78150750D01*
X159767018Y-78276982D01*
X159893250Y-78373842D01*
X160040250Y-78434732D01*
X160048434Y-78435809D01*
X160048436Y-78435810D01*
X160189812Y-78454422D01*
X160198000Y-78455500D01*
X160206188Y-78454422D01*
X160347564Y-78435810D01*
X160347566Y-78435809D01*
X160355750Y-78434732D01*
X160502750Y-78373842D01*
X160628982Y-78276982D01*
X160725842Y-78150750D01*
X160786732Y-78003750D01*
X160807500Y-77846000D01*
X160786732Y-77688250D01*
X160725842Y-77541250D01*
X160628982Y-77415018D01*
X160502750Y-77318158D01*
X160355750Y-77257268D01*
X160347566Y-77256191D01*
X160347564Y-77256190D01*
X160206188Y-77237578D01*
X160198000Y-77236500D01*
X160189812Y-77237578D01*
X160048436Y-77256190D01*
X160048434Y-77256191D01*
X160040250Y-77257268D01*
X159893250Y-77318158D01*
X159767018Y-77415018D01*
X159670158Y-77541250D01*
X159609268Y-77688250D01*
X159588500Y-77846000D01*
X159332500Y-77846000D01*
X159332500Y-77596000D01*
X159312747Y-77496694D01*
X159256494Y-77412506D01*
X159172306Y-77356253D01*
X159073000Y-77336500D01*
X158823000Y-77336500D01*
X158723694Y-77356253D01*
X158639506Y-77412506D01*
X158583253Y-77496694D01*
X158577068Y-77527787D01*
X158571579Y-77555384D01*
X158538672Y-77618294D01*
X158476977Y-77653426D01*
X158406082Y-77649626D01*
X158348496Y-77608101D01*
X158324421Y-77555384D01*
X158318932Y-77527787D01*
X158312747Y-77496694D01*
X158256494Y-77412506D01*
X158172306Y-77356253D01*
X158073000Y-77336500D01*
X157823000Y-77336500D01*
X157723694Y-77356253D01*
X157722859Y-77352056D01*
X157675626Y-77357133D01*
X157672324Y-77356163D01*
X157672306Y-77356253D01*
X157579068Y-77337707D01*
X157573000Y-77336500D01*
X157323000Y-77336500D01*
X157223694Y-77356253D01*
X157222859Y-77352056D01*
X157175626Y-77357133D01*
X157172324Y-77356163D01*
X157172306Y-77356253D01*
X157079068Y-77337707D01*
X157073000Y-77336500D01*
X156823000Y-77336500D01*
X156723694Y-77356253D01*
X156722859Y-77352056D01*
X156675626Y-77357133D01*
X156672324Y-77356163D01*
X156672306Y-77356253D01*
X156579068Y-77337707D01*
X156573000Y-77336500D01*
X156323000Y-77336500D01*
X156223694Y-77356253D01*
X156139506Y-77412506D01*
X156083253Y-77496694D01*
X156077068Y-77527787D01*
X156071579Y-77555384D01*
X156038672Y-77618294D01*
X155976977Y-77653426D01*
X155906082Y-77649626D01*
X155848496Y-77608101D01*
X155824421Y-77555384D01*
X155818932Y-77527787D01*
X155812747Y-77496694D01*
X155756494Y-77412506D01*
X155672306Y-77356253D01*
X155573000Y-77336500D01*
X155323000Y-77336500D01*
X155223694Y-77356253D01*
X155222859Y-77352056D01*
X155175626Y-77357133D01*
X155172324Y-77356163D01*
X155172306Y-77356253D01*
X155079068Y-77337707D01*
X155073000Y-77336500D01*
X154823000Y-77336500D01*
X154723694Y-77356253D01*
X154722859Y-77352056D01*
X154675626Y-77357133D01*
X154672324Y-77356163D01*
X154672306Y-77356253D01*
X154579068Y-77337707D01*
X154573000Y-77336500D01*
X154323000Y-77336500D01*
X154223694Y-77356253D01*
X154139506Y-77412506D01*
X154083253Y-77496694D01*
X154077068Y-77527787D01*
X154071579Y-77555384D01*
X154038672Y-77618294D01*
X153976977Y-77653426D01*
X153906082Y-77649626D01*
X153848496Y-77608101D01*
X153824421Y-77555384D01*
X153818932Y-77527787D01*
X153812747Y-77496694D01*
X153756494Y-77412506D01*
X153672306Y-77356253D01*
X153573000Y-77336500D01*
X153323000Y-77336500D01*
X153223694Y-77356253D01*
X153139506Y-77412506D01*
X153083253Y-77496694D01*
X153077068Y-77527787D01*
X153071579Y-77555384D01*
X153038672Y-77618294D01*
X152976977Y-77653426D01*
X152906082Y-77649626D01*
X152848496Y-77608101D01*
X152824421Y-77555384D01*
X152818932Y-77527787D01*
X152812747Y-77496694D01*
X152756494Y-77412506D01*
X152672306Y-77356253D01*
X152573000Y-77336500D01*
X152323000Y-77336500D01*
X152316932Y-77337707D01*
X152302493Y-77340579D01*
X152277912Y-77343000D01*
X152118088Y-77343000D01*
X152093507Y-77340579D01*
X152079068Y-77337707D01*
X152073000Y-77336500D01*
X151823000Y-77336500D01*
X151723694Y-77356253D01*
X151639506Y-77412506D01*
X151583253Y-77496694D01*
X151563500Y-77596000D01*
X151563500Y-78209182D01*
X151543498Y-78277303D01*
X151526595Y-78298278D01*
X151249276Y-78575596D01*
X151186964Y-78609621D01*
X151160181Y-78612500D01*
X151057466Y-78612500D01*
X150989345Y-78592498D01*
X150942852Y-78538842D01*
X150932748Y-78468568D01*
X150962242Y-78403988D01*
X150994463Y-78377383D01*
X150995127Y-78376999D01*
X151002750Y-78373842D01*
X151009302Y-78368815D01*
X151122432Y-78282008D01*
X151128982Y-78276982D01*
X151225842Y-78150750D01*
X151286732Y-78003750D01*
X151307500Y-77846000D01*
X151286732Y-77688250D01*
X151225842Y-77541250D01*
X151128982Y-77415018D01*
X151002750Y-77318158D01*
X150855750Y-77257268D01*
X150847566Y-77256191D01*
X150847564Y-77256190D01*
X150706188Y-77237578D01*
X150698000Y-77236500D01*
X150689812Y-77237578D01*
X150548436Y-77256190D01*
X150548434Y-77256191D01*
X150540250Y-77257268D01*
X150393250Y-77318158D01*
X150267018Y-77415018D01*
X150170158Y-77541250D01*
X150109268Y-77688250D01*
X150088500Y-77846000D01*
X150109268Y-78003750D01*
X150170158Y-78150750D01*
X150267018Y-78276982D01*
X150273568Y-78282008D01*
X150386699Y-78368815D01*
X150393250Y-78373842D01*
X150400873Y-78376999D01*
X150401537Y-78377383D01*
X150450529Y-78428767D01*
X150463963Y-78498480D01*
X150437575Y-78564391D01*
X150379741Y-78605571D01*
X150338534Y-78612500D01*
X148217818Y-78612500D01*
X148149697Y-78592498D01*
X148128723Y-78575595D01*
X145579405Y-76026277D01*
X145545379Y-75963965D01*
X145542500Y-75937182D01*
X145542500Y-71190046D01*
X145543742Y-71178933D01*
X145543145Y-71178885D01*
X145543865Y-71169937D01*
X145545846Y-71161182D01*
X145542742Y-71111148D01*
X145542500Y-71103346D01*
X145542500Y-71085087D01*
X145540791Y-71073150D01*
X145539762Y-71063100D01*
X145537387Y-71024827D01*
X145537387Y-71024826D01*
X145536831Y-71015868D01*
X145533782Y-71007423D01*
X145533183Y-71004529D01*
X145528962Y-70987601D01*
X145528133Y-70984766D01*
X145526860Y-70975878D01*
X145507260Y-70932769D01*
X145503461Y-70923434D01*
X145495106Y-70900291D01*
X145487393Y-70878927D01*
X145482097Y-70871678D01*
X145480698Y-70869047D01*
X145471913Y-70854013D01*
X145470315Y-70851513D01*
X145466599Y-70843341D01*
X145435704Y-70807485D01*
X145429418Y-70799568D01*
X145423408Y-70791341D01*
X145423407Y-70791340D01*
X145420533Y-70787406D01*
X145408444Y-70775317D01*
X145402086Y-70768470D01*
X145377423Y-70739847D01*
X145371562Y-70733045D01*
X145364028Y-70728161D01*
X145357265Y-70722262D01*
X145357324Y-70722195D01*
X145346836Y-70713709D01*
X144055405Y-69422277D01*
X144021379Y-69359965D01*
X144018500Y-69333182D01*
X144018500Y-68089543D01*
X144004168Y-67994216D01*
X143947882Y-67877001D01*
X143929878Y-67857524D01*
X143866010Y-67788431D01*
X143866007Y-67788429D01*
X143859619Y-67781518D01*
X143835503Y-67767510D01*
X143758559Y-67722818D01*
X143747181Y-67716209D01*
X143636266Y-67690500D01*
X141876543Y-67690500D01*
X141871896Y-67691199D01*
X141871891Y-67691199D01*
X141790527Y-67703432D01*
X141790526Y-67703432D01*
X141781216Y-67704832D01*
X141664001Y-67761118D01*
X141657086Y-67767510D01*
X141575431Y-67842990D01*
X141575429Y-67842993D01*
X141568518Y-67849381D01*
X141563789Y-67857523D01*
X141563788Y-67857524D01*
X141561334Y-67861749D01*
X141503209Y-67961819D01*
X141477500Y-68072734D01*
X141477500Y-69578457D01*
X141478199Y-69583104D01*
X141478199Y-69583109D01*
X141489703Y-69659626D01*
X141491832Y-69673784D01*
X141548118Y-69790999D01*
X141554510Y-69797914D01*
X141629990Y-69879569D01*
X141629993Y-69879571D01*
X141636381Y-69886482D01*
X141644523Y-69891211D01*
X141644524Y-69891212D01*
X141671502Y-69906882D01*
X141748819Y-69951791D01*
X141859734Y-69977500D01*
X143120182Y-69977500D01*
X143188303Y-69997502D01*
X143209277Y-70014405D01*
X144488595Y-71293723D01*
X144522621Y-71356035D01*
X144525500Y-71382818D01*
X144525500Y-74865748D01*
X144505498Y-74933869D01*
X144451842Y-74980362D01*
X144381568Y-74990466D01*
X144316988Y-74960972D01*
X144310405Y-74954843D01*
X143926398Y-74570836D01*
X143892372Y-74508524D01*
X143898463Y-74435051D01*
X143901501Y-74427438D01*
X143976204Y-74240192D01*
X143978086Y-74230733D01*
X144016081Y-74039719D01*
X144016081Y-74039714D01*
X144017208Y-74034051D01*
X144017305Y-74026703D01*
X144019884Y-73829672D01*
X144019960Y-73823890D01*
X143984366Y-73616746D01*
X143911619Y-73419558D01*
X143804156Y-73238929D01*
X143800350Y-73234589D01*
X143800347Y-73234585D01*
X143669382Y-73085249D01*
X143665575Y-73080908D01*
X143645059Y-73064734D01*
X143505055Y-72954364D01*
X143500518Y-72950787D01*
X143495407Y-72948098D01*
X143495404Y-72948096D01*
X143393523Y-72894494D01*
X143314512Y-72852924D01*
X143308991Y-72851210D01*
X143308987Y-72851208D01*
X143119310Y-72792312D01*
X143119311Y-72792312D01*
X143113787Y-72790597D01*
X142943981Y-72770500D01*
X142566586Y-72770500D01*
X142411702Y-72784732D01*
X142406140Y-72786301D01*
X142406138Y-72786301D01*
X142390906Y-72790597D01*
X142209414Y-72841783D01*
X142020910Y-72934743D01*
X141852503Y-73060498D01*
X141709834Y-73214837D01*
X141597679Y-73392592D01*
X141519796Y-73587808D01*
X141518670Y-73593468D01*
X141518669Y-73593472D01*
X141512907Y-73622443D01*
X141478792Y-73793949D01*
X141478716Y-73799724D01*
X141478716Y-73799728D01*
X141478400Y-73823890D01*
X141476040Y-74004110D01*
X140970000Y-74004110D01*
X140970000Y-65404000D01*
X140990002Y-65335879D01*
X141043658Y-65289386D01*
X141096000Y-65278000D01*
X151337500Y-65278000D01*
X151405621Y-65298002D01*
G37*
%TD.AperFunction*%
%TA.AperFunction,Conductor*%
G36*
X155989918Y-79542374D02*
G01*
X156047504Y-79583899D01*
X156071579Y-79636616D01*
X156076779Y-79662759D01*
X156079200Y-79687340D01*
X156079200Y-80837047D01*
X156059198Y-80905168D01*
X156042295Y-80926142D01*
X156031895Y-80936542D01*
X155969583Y-80970568D01*
X155898768Y-80965503D01*
X155841932Y-80922956D01*
X155817121Y-80856436D01*
X155816800Y-80847447D01*
X155816800Y-79687340D01*
X155819221Y-79662759D01*
X155824421Y-79636616D01*
X155857328Y-79573707D01*
X155919023Y-79538574D01*
X155989918Y-79542374D01*
G37*
%TD.AperFunction*%
%TA.AperFunction,Conductor*%
G36*
X152989918Y-79542374D02*
G01*
X153047504Y-79583899D01*
X153071579Y-79636616D01*
X153076779Y-79662759D01*
X153079200Y-79687340D01*
X153079200Y-79829794D01*
X153059198Y-79897915D01*
X153047641Y-79913202D01*
X152986813Y-79982077D01*
X152924938Y-80113867D01*
X152923558Y-80122732D01*
X152923557Y-80122734D01*
X152921300Y-80137234D01*
X152902538Y-80257727D01*
X152903702Y-80266629D01*
X152903702Y-80266633D01*
X152919555Y-80387863D01*
X152908555Y-80458002D01*
X152861380Y-80511059D01*
X152794619Y-80530200D01*
X148667952Y-80530200D01*
X148599831Y-80510198D01*
X148578857Y-80493295D01*
X147930478Y-79844916D01*
X147896452Y-79782604D01*
X147901517Y-79711789D01*
X147944064Y-79654953D01*
X147993304Y-79632590D01*
X147994812Y-79632268D01*
X148021079Y-79629500D01*
X151352954Y-79629500D01*
X151364067Y-79630742D01*
X151364115Y-79630145D01*
X151373063Y-79630865D01*
X151381818Y-79632846D01*
X151431851Y-79629742D01*
X151439653Y-79629500D01*
X151457913Y-79629500D01*
X151462350Y-79628865D01*
X151464995Y-79628676D01*
X151534366Y-79643785D01*
X151582605Y-79692049D01*
X151583253Y-79695306D01*
X151590031Y-79705450D01*
X151590032Y-79705452D01*
X151609893Y-79735176D01*
X151639506Y-79779494D01*
X151649822Y-79786387D01*
X151676610Y-79804286D01*
X151723694Y-79835747D01*
X151823000Y-79855500D01*
X152073000Y-79855500D01*
X152172306Y-79835747D01*
X152173141Y-79839944D01*
X152220374Y-79834867D01*
X152223676Y-79835837D01*
X152223694Y-79835747D01*
X152323000Y-79855500D01*
X152573000Y-79855500D01*
X152672306Y-79835747D01*
X152719390Y-79804286D01*
X152746178Y-79786387D01*
X152756494Y-79779494D01*
X152812747Y-79695306D01*
X152824421Y-79636616D01*
X152857328Y-79573706D01*
X152919023Y-79538574D01*
X152989918Y-79542374D01*
G37*
%TD.AperFunction*%
%TA.AperFunction,Conductor*%
G36*
X153989918Y-79542374D02*
G01*
X154047504Y-79583899D01*
X154071579Y-79636616D01*
X154076779Y-79662759D01*
X154079200Y-79687340D01*
X154079200Y-79919397D01*
X154059198Y-79987518D01*
X154005542Y-80034011D01*
X153935268Y-80044115D01*
X153870688Y-80014621D01*
X153850260Y-79990993D01*
X153848599Y-79987341D01*
X153842739Y-79980540D01*
X153837903Y-79972978D01*
X153840688Y-79971197D01*
X153818034Y-79921233D01*
X153816800Y-79903640D01*
X153816800Y-79687340D01*
X153819221Y-79662759D01*
X153824421Y-79636616D01*
X153857328Y-79573707D01*
X153919023Y-79538574D01*
X153989918Y-79542374D01*
G37*
%TD.AperFunction*%
%TA.AperFunction,Conductor*%
G36*
X158489918Y-79542374D02*
G01*
X158547504Y-79583899D01*
X158571578Y-79636613D01*
X158574154Y-79649562D01*
X158576095Y-79675520D01*
X158574615Y-79682392D01*
X158575839Y-79692734D01*
X158575839Y-79692735D01*
X158578327Y-79713756D01*
X158578676Y-79719669D01*
X158578772Y-79719661D01*
X158579200Y-79724841D01*
X158579200Y-79730040D01*
X158580053Y-79735166D01*
X158580054Y-79735176D01*
X158582361Y-79749035D01*
X158583197Y-79754909D01*
X158584620Y-79766930D01*
X158572765Y-79836930D01*
X158524947Y-79889408D01*
X158456348Y-79907703D01*
X158388748Y-79886006D01*
X158370399Y-79870837D01*
X158353705Y-79854143D01*
X158319679Y-79791831D01*
X158316800Y-79765048D01*
X158316800Y-79687340D01*
X158319221Y-79662759D01*
X158324421Y-79636616D01*
X158357328Y-79573707D01*
X158419023Y-79538574D01*
X158489918Y-79542374D01*
G37*
%TD.AperFunction*%
%TA.AperFunction,Conductor*%
G36*
X160925569Y-72143802D02*
G01*
X160972062Y-72197458D01*
X160982166Y-72267732D01*
X160952672Y-72332312D01*
X160946543Y-72338895D01*
X159288212Y-73997226D01*
X159271875Y-74010421D01*
X159269176Y-74012877D01*
X159260428Y-74018526D01*
X159253982Y-74026703D01*
X159240871Y-74043334D01*
X159236935Y-74047763D01*
X159237009Y-74047826D01*
X159233654Y-74051785D01*
X159229978Y-74055461D01*
X159226960Y-74059684D01*
X159226955Y-74059690D01*
X159218777Y-74071134D01*
X159215216Y-74075878D01*
X159184437Y-74114920D01*
X159181490Y-74123311D01*
X159176317Y-74130550D01*
X159173333Y-74140528D01*
X159162069Y-74178192D01*
X159160235Y-74183838D01*
X159143766Y-74230733D01*
X159143200Y-74237268D01*
X159143200Y-74239984D01*
X159143134Y-74241506D01*
X159141147Y-74248151D01*
X159141556Y-74258558D01*
X159143103Y-74297934D01*
X159143200Y-74302881D01*
X159143200Y-74344047D01*
X159123198Y-74412168D01*
X159106296Y-74433142D01*
X159064200Y-74475239D01*
X159031896Y-74507543D01*
X158969584Y-74541568D01*
X158898768Y-74536504D01*
X158841932Y-74493958D01*
X158817121Y-74427438D01*
X158816800Y-74418448D01*
X158816800Y-74387340D01*
X158819221Y-74362759D01*
X158831293Y-74302068D01*
X158832500Y-74296000D01*
X158832500Y-72296000D01*
X158831293Y-72289932D01*
X158831293Y-72289929D01*
X158828200Y-72274380D01*
X158834529Y-72203666D01*
X158878084Y-72147599D01*
X158951779Y-72123800D01*
X160857448Y-72123800D01*
X160925569Y-72143802D01*
G37*
%TD.AperFunction*%
%TA.AperFunction,Conductor*%
G36*
X155616675Y-68293014D02*
G01*
X155673511Y-68335561D01*
X155698322Y-68402081D01*
X155684151Y-68469737D01*
X155667288Y-68501789D01*
X155656924Y-68521488D01*
X155655210Y-68527009D01*
X155655208Y-68527013D01*
X155646271Y-68555795D01*
X155594597Y-68722213D01*
X155574500Y-68892019D01*
X155574500Y-69269414D01*
X155588732Y-69424298D01*
X155645783Y-69626586D01*
X155738743Y-69815090D01*
X155742197Y-69819716D01*
X155742198Y-69819717D01*
X155858809Y-69975878D01*
X155864498Y-69983497D01*
X155897934Y-70014405D01*
X155921066Y-70035788D01*
X155957511Y-70096717D01*
X155955230Y-70167677D01*
X155914948Y-70226139D01*
X155870688Y-70249311D01*
X155862060Y-70251818D01*
X155851714Y-70253042D01*
X155843696Y-70256892D01*
X155834920Y-70258353D01*
X155792039Y-70281490D01*
X155791170Y-70281959D01*
X155785881Y-70284654D01*
X155748208Y-70302744D01*
X155748202Y-70302748D01*
X155741063Y-70306176D01*
X155736042Y-70310397D01*
X155734114Y-70312325D01*
X155733002Y-70313345D01*
X155726895Y-70316640D01*
X155719827Y-70324286D01*
X155719826Y-70324287D01*
X155693054Y-70353249D01*
X155689624Y-70356815D01*
X154724216Y-71322223D01*
X154707875Y-71335422D01*
X154705178Y-71337876D01*
X154696428Y-71343526D01*
X154689982Y-71351703D01*
X154676871Y-71368334D01*
X154672935Y-71372763D01*
X154673009Y-71372826D01*
X154669654Y-71376785D01*
X154665978Y-71380461D01*
X154662960Y-71384684D01*
X154662955Y-71384690D01*
X154654777Y-71396134D01*
X154651216Y-71400878D01*
X154620437Y-71439920D01*
X154617490Y-71448311D01*
X154612317Y-71455550D01*
X154609333Y-71465528D01*
X154598069Y-71503192D01*
X154596235Y-71508838D01*
X154579766Y-71555733D01*
X154579200Y-71562268D01*
X154579200Y-71564984D01*
X154579134Y-71566506D01*
X154577147Y-71573151D01*
X154577556Y-71583558D01*
X154579103Y-71622934D01*
X154579200Y-71627881D01*
X154579200Y-72204660D01*
X154576779Y-72229241D01*
X154571579Y-72255384D01*
X154538672Y-72318293D01*
X154476977Y-72353426D01*
X154406082Y-72349626D01*
X154348496Y-72308101D01*
X154324421Y-72255384D01*
X154319221Y-72229241D01*
X154316800Y-72204660D01*
X154316800Y-71046952D01*
X154336802Y-70978831D01*
X154353705Y-70957857D01*
X154401789Y-70909773D01*
X154418109Y-70896592D01*
X154420820Y-70894125D01*
X154429572Y-70888474D01*
X154449126Y-70863670D01*
X154453063Y-70859240D01*
X154452989Y-70859177D01*
X154456342Y-70855220D01*
X154460022Y-70851540D01*
X154465881Y-70843341D01*
X154471224Y-70835865D01*
X154474790Y-70831115D01*
X154499115Y-70800260D01*
X154499117Y-70800257D01*
X154505563Y-70792080D01*
X154508510Y-70783689D01*
X154513683Y-70776450D01*
X154522095Y-70748321D01*
X154527931Y-70728808D01*
X154529766Y-70723160D01*
X154536531Y-70703897D01*
X154546234Y-70676267D01*
X154546800Y-70669732D01*
X154546800Y-70667016D01*
X154546866Y-70665494D01*
X154548853Y-70658849D01*
X154546897Y-70609066D01*
X154546800Y-70604119D01*
X154546800Y-70385788D01*
X154566802Y-70317667D01*
X154620458Y-70271174D01*
X154629189Y-70267576D01*
X154667026Y-70253617D01*
X154667025Y-70253617D01*
X154672442Y-70251619D01*
X154704793Y-70232372D01*
X154848103Y-70147112D01*
X154848106Y-70147110D01*
X154853071Y-70144156D01*
X154857411Y-70140350D01*
X154857415Y-70140347D01*
X155006751Y-70009382D01*
X155011092Y-70005575D01*
X155141213Y-69840518D01*
X155149373Y-69825010D01*
X155221342Y-69688219D01*
X155239076Y-69654512D01*
X155245238Y-69634669D01*
X155299688Y-69459310D01*
X155299688Y-69459309D01*
X155301403Y-69453787D01*
X155321500Y-69283981D01*
X155321500Y-68906586D01*
X155307268Y-68751702D01*
X155271559Y-68625086D01*
X155272319Y-68554094D01*
X155303733Y-68501790D01*
X155483548Y-68321975D01*
X155545860Y-68287949D01*
X155616675Y-68293014D01*
G37*
%TD.AperFunction*%
%TA.AperFunction,Conductor*%
G36*
X155497232Y-71696496D02*
G01*
X155554068Y-71739043D01*
X155578879Y-71805563D01*
X155579200Y-71814552D01*
X155579200Y-72204660D01*
X155576779Y-72229241D01*
X155571579Y-72255384D01*
X155538672Y-72318293D01*
X155476977Y-72353426D01*
X155406082Y-72349626D01*
X155348496Y-72308101D01*
X155324421Y-72255384D01*
X155319221Y-72229241D01*
X155316800Y-72204660D01*
X155316800Y-71824952D01*
X155336802Y-71756831D01*
X155353705Y-71735857D01*
X155364105Y-71725457D01*
X155426417Y-71691431D01*
X155497232Y-71696496D01*
G37*
%TD.AperFunction*%
%TA.AperFunction,Conductor*%
G36*
X152525312Y-72021328D02*
G01*
X152531895Y-72027457D01*
X152542295Y-72037857D01*
X152576321Y-72100169D01*
X152579200Y-72126952D01*
X152579200Y-72204660D01*
X152576779Y-72229241D01*
X152571579Y-72255384D01*
X152538672Y-72318293D01*
X152476977Y-72353426D01*
X152406082Y-72349626D01*
X152348496Y-72308101D01*
X152324421Y-72255384D01*
X152319221Y-72229241D01*
X152316800Y-72204660D01*
X152316800Y-72116552D01*
X152336802Y-72048431D01*
X152390458Y-72001938D01*
X152460732Y-71991834D01*
X152525312Y-72021328D01*
G37*
%TD.AperFunction*%
%TA.AperFunction,Conductor*%
G36*
X154705621Y-65298002D02*
G01*
X154752114Y-65351658D01*
X154763500Y-65404000D01*
X154763500Y-66024000D01*
X154783253Y-66123306D01*
X154839506Y-66207494D01*
X154923694Y-66263747D01*
X154965080Y-66271979D01*
X155027990Y-66304886D01*
X155063123Y-66366580D01*
X155066500Y-66395558D01*
X155066500Y-67607788D01*
X155046498Y-67675909D01*
X155029595Y-67696883D01*
X154821998Y-67904480D01*
X154759686Y-67938506D01*
X154686214Y-67932415D01*
X154504192Y-67859796D01*
X154498532Y-67858670D01*
X154498528Y-67858669D01*
X154303719Y-67819919D01*
X154303714Y-67819919D01*
X154298051Y-67818792D01*
X154292276Y-67818716D01*
X154292272Y-67818716D01*
X154186597Y-67817333D01*
X154087890Y-67816040D01*
X154082193Y-67817019D01*
X154082192Y-67817019D01*
X153886443Y-67850655D01*
X153880746Y-67851634D01*
X153683558Y-67924381D01*
X153678597Y-67927333D01*
X153678596Y-67927333D01*
X153507897Y-68028888D01*
X153507894Y-68028890D01*
X153502929Y-68031844D01*
X153498589Y-68035650D01*
X153498585Y-68035653D01*
X153410700Y-68112727D01*
X153344908Y-68170425D01*
X153214787Y-68335482D01*
X153212098Y-68340593D01*
X153212096Y-68340596D01*
X153179747Y-68402081D01*
X153116924Y-68521488D01*
X153115210Y-68527009D01*
X153115208Y-68527013D01*
X153106271Y-68555795D01*
X153054597Y-68722213D01*
X153034500Y-68892019D01*
X153034500Y-69269414D01*
X153048732Y-69424298D01*
X153105783Y-69626586D01*
X153198743Y-69815090D01*
X153202197Y-69819716D01*
X153202198Y-69819717D01*
X153318809Y-69975878D01*
X153324498Y-69983497D01*
X153328732Y-69987411D01*
X153328734Y-69987413D01*
X153339649Y-69997502D01*
X153478837Y-70126166D01*
X153656592Y-70238321D01*
X153661956Y-70240461D01*
X153729890Y-70267564D01*
X153785750Y-70311385D01*
X153809200Y-70384594D01*
X153809200Y-70407049D01*
X153789198Y-70475170D01*
X153772295Y-70496144D01*
X153724215Y-70544224D01*
X153707887Y-70557411D01*
X153705177Y-70559877D01*
X153696428Y-70565526D01*
X153689981Y-70573704D01*
X153676871Y-70590334D01*
X153672935Y-70594763D01*
X153673009Y-70594826D01*
X153669654Y-70598785D01*
X153665978Y-70602461D01*
X153662960Y-70606684D01*
X153662955Y-70606690D01*
X153654777Y-70618134D01*
X153651216Y-70622878D01*
X153620437Y-70661920D01*
X153617490Y-70670311D01*
X153612317Y-70677550D01*
X153609333Y-70687528D01*
X153598069Y-70725192D01*
X153596235Y-70730838D01*
X153579766Y-70777733D01*
X153579200Y-70784268D01*
X153579200Y-70786984D01*
X153579134Y-70788506D01*
X153577147Y-70795151D01*
X153577556Y-70805558D01*
X153579103Y-70844934D01*
X153579200Y-70849881D01*
X153579200Y-72204660D01*
X153576779Y-72229241D01*
X153571579Y-72255384D01*
X153538672Y-72318293D01*
X153476977Y-72353426D01*
X153406082Y-72349626D01*
X153348496Y-72308101D01*
X153324421Y-72255384D01*
X153319221Y-72229241D01*
X153316800Y-72204660D01*
X153316800Y-71974317D01*
X153319021Y-71953443D01*
X153319193Y-71949789D01*
X153321385Y-71939609D01*
X153317673Y-71908245D01*
X153317324Y-71902332D01*
X153317228Y-71902340D01*
X153316800Y-71897162D01*
X153316800Y-71891960D01*
X153313639Y-71872967D01*
X153312804Y-71867095D01*
X153308184Y-71828062D01*
X153308182Y-71828055D01*
X153306958Y-71817714D01*
X153303108Y-71809695D01*
X153301647Y-71800920D01*
X153278024Y-71757139D01*
X153275346Y-71751881D01*
X153257258Y-71714211D01*
X153257256Y-71714207D01*
X153253825Y-71707063D01*
X153249604Y-71702042D01*
X153247675Y-71700113D01*
X153246654Y-71699000D01*
X153243360Y-71692895D01*
X153206762Y-71659065D01*
X153203195Y-71655634D01*
X152189776Y-70642215D01*
X152176589Y-70625887D01*
X152174123Y-70623177D01*
X152168474Y-70614428D01*
X152143666Y-70594871D01*
X152139237Y-70590935D01*
X152139174Y-70591009D01*
X152135215Y-70587654D01*
X152131539Y-70583978D01*
X152127316Y-70580960D01*
X152127310Y-70580955D01*
X152115866Y-70572777D01*
X152111119Y-70569213D01*
X152080259Y-70544885D01*
X152080260Y-70544885D01*
X152072080Y-70538437D01*
X152063689Y-70535490D01*
X152056450Y-70530317D01*
X152023617Y-70520498D01*
X152008808Y-70516069D01*
X152003160Y-70514234D01*
X151963747Y-70500393D01*
X151963748Y-70500393D01*
X151956267Y-70497766D01*
X151949732Y-70497200D01*
X151947016Y-70497200D01*
X151945494Y-70497134D01*
X151938849Y-70495147D01*
X151889066Y-70497103D01*
X151884119Y-70497200D01*
X151080952Y-70497200D01*
X151012831Y-70477198D01*
X150991857Y-70460295D01*
X150219272Y-69687710D01*
X150185246Y-69625398D01*
X150188035Y-69561250D01*
X150219689Y-69459309D01*
X150219690Y-69459303D01*
X150221403Y-69453787D01*
X150241500Y-69283981D01*
X150241500Y-68906586D01*
X150227268Y-68751702D01*
X150191558Y-68625084D01*
X150192319Y-68554092D01*
X150223733Y-68501789D01*
X150743117Y-67982405D01*
X150805429Y-67948379D01*
X150832212Y-67945500D01*
X152474155Y-67945500D01*
X152494828Y-67947700D01*
X152498613Y-67947878D01*
X152508793Y-67950070D01*
X152540032Y-67946373D01*
X152546663Y-67945982D01*
X152546659Y-67945928D01*
X152551835Y-67945500D01*
X152557040Y-67945500D01*
X152577792Y-67942046D01*
X152583670Y-67941209D01*
X152624490Y-67936378D01*
X152624491Y-67936378D01*
X152634830Y-67935154D01*
X152643123Y-67931172D01*
X152652194Y-67929662D01*
X152661355Y-67924719D01*
X152661358Y-67924718D01*
X152697526Y-67905202D01*
X152702779Y-67902525D01*
X152749239Y-67880215D01*
X152755938Y-67874585D01*
X152757874Y-67872649D01*
X152757896Y-67872629D01*
X152763889Y-67869395D01*
X152774863Y-67857524D01*
X152795980Y-67834679D01*
X152799410Y-67831113D01*
X153480393Y-67150130D01*
X153496566Y-67137068D01*
X153499371Y-67134515D01*
X153508119Y-67128867D01*
X153514564Y-67120692D01*
X153514566Y-67120690D01*
X153527596Y-67104161D01*
X153532009Y-67099195D01*
X153531968Y-67099160D01*
X153535326Y-67095197D01*
X153539003Y-67091520D01*
X153551258Y-67074370D01*
X153554804Y-67069647D01*
X153559851Y-67063246D01*
X153586693Y-67029198D01*
X153589740Y-67020520D01*
X153595088Y-67013037D01*
X153598072Y-67003059D01*
X153598074Y-67003055D01*
X153609845Y-66963694D01*
X153611680Y-66958046D01*
X153626118Y-66916933D01*
X153626119Y-66916930D01*
X153628745Y-66909451D01*
X153629500Y-66900733D01*
X153629500Y-66897992D01*
X153629501Y-66897968D01*
X153631453Y-66891441D01*
X153629597Y-66844205D01*
X153629500Y-66839259D01*
X153629500Y-66395558D01*
X153649502Y-66327437D01*
X153703158Y-66280944D01*
X153730919Y-66271979D01*
X153772306Y-66263747D01*
X153856494Y-66207494D01*
X153912747Y-66123306D01*
X153932500Y-66024000D01*
X153932500Y-65404000D01*
X153952502Y-65335879D01*
X154006158Y-65289386D01*
X154058500Y-65278000D01*
X154637500Y-65278000D01*
X154705621Y-65298002D01*
G37*
%TD.AperFunction*%
%TA.AperFunction,Conductor*%
G36*
X156511149Y-71825579D02*
G01*
X156567985Y-71868126D01*
X156592796Y-71934646D01*
X156586001Y-71985380D01*
X156579766Y-72003133D01*
X156579200Y-72009668D01*
X156579200Y-72012384D01*
X156579134Y-72013906D01*
X156577147Y-72020551D01*
X156577556Y-72030958D01*
X156579103Y-72070334D01*
X156579200Y-72075281D01*
X156579200Y-72204660D01*
X156576779Y-72229241D01*
X156571579Y-72255384D01*
X156538672Y-72318293D01*
X156476977Y-72353426D01*
X156406082Y-72349626D01*
X156348496Y-72308101D01*
X156324421Y-72255384D01*
X156319221Y-72229241D01*
X156316800Y-72204660D01*
X156316800Y-71967952D01*
X156336802Y-71899831D01*
X156353705Y-71878857D01*
X156378022Y-71854540D01*
X156440334Y-71820514D01*
X156511149Y-71825579D01*
G37*
%TD.AperFunction*%
%TD*%
M02*
