M48
; DRILL file {KiCad 5.99.0-unknown-a82764f43a~117~ubuntu18.04.1} date Fri Apr 16 14:00:09 2021
; FORMAT={-:-/ absolute / inch / decimal}
; #@! TF.CreationDate,2021-04-16T14:00:09+07:00
; #@! TF.GenerationSoftware,Kicad,Pcbnew,5.99.0-unknown-a82764f43a~117~ubuntu18.04.1
; #@! TF.FileFunction,Plated,1,2,PTH
FMAT,2
INCH
; #@! TA.AperFunction,ViaDrill
T1C0.0100
; #@! TA.AperFunction,ComponentDrill
T2C0.0276
; #@! TA.AperFunction,ComponentDrill
T3C0.0400
%
G90
G05
T1
; via hole
X5.795Y-2.99
X5.87Y-3.08
X5.8739Y-2.8961
X6.04Y-3.16
X6.3Y-2.86
X6.365Y-3.08
X6.37Y-2.905
X6.435Y-2.99
T2
; pad hole
X5.9468Y-2.56
X5.9901Y-2.56
X6.0334Y-2.56
X6.0767Y-2.56
X6.12Y-2.56
X6.1633Y-2.56
X6.2066Y-2.56
X6.2499Y-2.56
X6.2932Y-2.56
T3
X5.62Y-2.71
X5.62Y-2.81
X5.62Y-2.91
X5.62Y-3.01
X5.62Y-3.11
X5.62Y-3.21
X5.77Y-2.72
X5.87Y-2.72
X5.97Y-2.72
X6.07Y-2.72
X6.17Y-2.72
X6.27Y-2.72
X6.37Y-2.72
X6.47Y-2.72
X6.62Y-2.71
X6.62Y-2.81
X6.62Y-2.91
X6.62Y-3.01
X6.62Y-3.11
X6.62Y-3.21
T0
M30
