%TF.GenerationSoftware,KiCad,Pcbnew,5.99.0-unknown-a82764f43a~117~ubuntu18.04.1*%
%TF.CreationDate,2021-04-16T14:00:04+07:00*%
%TF.ProjectId,Wifi-Pinout,57696669-2d50-4696-9e6f-75742e6b6963,rev?*%
%TF.SameCoordinates,Original*%
%TF.FileFunction,Legend,Bot*%
%TF.FilePolarity,Positive*%
%FSLAX46Y46*%
G04 Gerber Fmt 4.6, Leading zero omitted, Abs format (unit mm)*
G04 Created by KiCad (PCBNEW 5.99.0-unknown-a82764f43a~117~ubuntu18.04.1) date 2021-04-16 14:00:04*
%MOMM*%
%LPD*%
G01*
G04 APERTURE LIST*
%ADD10C,0.203200*%
G04 APERTURE END LIST*
D10*
X166552396Y-74833238D02*
X166407253Y-74881619D01*
X166165348Y-74881619D01*
X166068586Y-74833238D01*
X166020205Y-74784857D01*
X165971824Y-74688095D01*
X165971824Y-74591333D01*
X166020205Y-74494571D01*
X166068586Y-74446190D01*
X166165348Y-74397809D01*
X166358872Y-74349428D01*
X166455634Y-74301047D01*
X166504015Y-74252666D01*
X166552396Y-74155904D01*
X166552396Y-74059142D01*
X166504015Y-73962380D01*
X166455634Y-73914000D01*
X166358872Y-73865619D01*
X166116967Y-73865619D01*
X165971824Y-73914000D01*
X165052586Y-74881619D02*
X165536396Y-74881619D01*
X165536396Y-73865619D01*
X164713920Y-74349428D02*
X164375253Y-74349428D01*
X164230110Y-74881619D02*
X164713920Y-74881619D01*
X164713920Y-73865619D01*
X164230110Y-73865619D01*
X163794681Y-74349428D02*
X163456015Y-74349428D01*
X163310872Y-74881619D02*
X163794681Y-74881619D01*
X163794681Y-73865619D01*
X163310872Y-73865619D01*
X162875443Y-74881619D02*
X162875443Y-73865619D01*
X162488396Y-73865619D01*
X162391634Y-73914000D01*
X162343253Y-73962380D01*
X162294872Y-74059142D01*
X162294872Y-74204285D01*
X162343253Y-74301047D01*
X162391634Y-74349428D01*
X162488396Y-74397809D01*
X162875443Y-74397809D01*
X162101348Y-74978380D02*
X161327253Y-74978380D01*
X160504777Y-74784857D02*
X160553158Y-74833238D01*
X160698300Y-74881619D01*
X160795062Y-74881619D01*
X160940205Y-74833238D01*
X161036967Y-74736476D01*
X161085348Y-74639714D01*
X161133729Y-74446190D01*
X161133729Y-74301047D01*
X161085348Y-74107523D01*
X161036967Y-74010761D01*
X160940205Y-73914000D01*
X160795062Y-73865619D01*
X160698300Y-73865619D01*
X160553158Y-73914000D01*
X160504777Y-73962380D01*
X159585539Y-74881619D02*
X160069348Y-74881619D01*
X160069348Y-73865619D01*
X159246872Y-74881619D02*
X159246872Y-73865619D01*
X158666300Y-74881619D02*
X159101729Y-74301047D01*
X158666300Y-73865619D02*
X159246872Y-74446190D01*
X166504015Y-75897619D02*
X166504015Y-76720095D01*
X166455634Y-76816857D01*
X166407253Y-76865238D01*
X166310491Y-76913619D01*
X166116967Y-76913619D01*
X166020205Y-76865238D01*
X165971824Y-76816857D01*
X165923443Y-76720095D01*
X165923443Y-75897619D01*
X165488015Y-76623333D02*
X165004205Y-76623333D01*
X165584777Y-76913619D02*
X165246110Y-75897619D01*
X164907443Y-76913619D01*
X163988205Y-76913619D02*
X164326872Y-76429809D01*
X164568777Y-76913619D02*
X164568777Y-75897619D01*
X164181729Y-75897619D01*
X164084967Y-75946000D01*
X164036586Y-75994380D01*
X163988205Y-76091142D01*
X163988205Y-76236285D01*
X164036586Y-76333047D01*
X164084967Y-76381428D01*
X164181729Y-76429809D01*
X164568777Y-76429809D01*
X163697920Y-75897619D02*
X163117348Y-75897619D01*
X163407634Y-76913619D02*
X163407634Y-75897619D01*
X163020586Y-77010380D02*
X162246491Y-77010380D01*
X161424015Y-76816857D02*
X161472396Y-76865238D01*
X161617539Y-76913619D01*
X161714300Y-76913619D01*
X161859443Y-76865238D01*
X161956205Y-76768476D01*
X162004586Y-76671714D01*
X162052967Y-76478190D01*
X162052967Y-76333047D01*
X162004586Y-76139523D01*
X161956205Y-76042761D01*
X161859443Y-75946000D01*
X161714300Y-75897619D01*
X161617539Y-75897619D01*
X161472396Y-75946000D01*
X161424015Y-75994380D01*
X161133729Y-75897619D02*
X160553158Y-75897619D01*
X160843443Y-76913619D02*
X160843443Y-75897619D01*
X160262872Y-76865238D02*
X160117729Y-76913619D01*
X159875824Y-76913619D01*
X159779062Y-76865238D01*
X159730681Y-76816857D01*
X159682300Y-76720095D01*
X159682300Y-76623333D01*
X159730681Y-76526571D01*
X159779062Y-76478190D01*
X159875824Y-76429809D01*
X160069348Y-76381428D01*
X160166110Y-76333047D01*
X160214491Y-76284666D01*
X160262872Y-76187904D01*
X160262872Y-76091142D01*
X160214491Y-75994380D01*
X160166110Y-75946000D01*
X160069348Y-75897619D01*
X159827443Y-75897619D01*
X159682300Y-75946000D01*
X166504015Y-78437619D02*
X166504015Y-79260095D01*
X166455634Y-79356857D01*
X166407253Y-79405238D01*
X166310491Y-79453619D01*
X166116967Y-79453619D01*
X166020205Y-79405238D01*
X165971824Y-79356857D01*
X165923443Y-79260095D01*
X165923443Y-78437619D01*
X165488015Y-79163333D02*
X165004205Y-79163333D01*
X165584777Y-79453619D02*
X165246110Y-78437619D01*
X164907443Y-79453619D01*
X163988205Y-79453619D02*
X164326872Y-78969809D01*
X164568777Y-79453619D02*
X164568777Y-78437619D01*
X164181729Y-78437619D01*
X164084967Y-78486000D01*
X164036586Y-78534380D01*
X163988205Y-78631142D01*
X163988205Y-78776285D01*
X164036586Y-78873047D01*
X164084967Y-78921428D01*
X164181729Y-78969809D01*
X164568777Y-78969809D01*
X163697920Y-78437619D02*
X163117348Y-78437619D01*
X163407634Y-79453619D02*
X163407634Y-78437619D01*
X163020586Y-79550380D02*
X162246491Y-79550380D01*
X161424015Y-79453619D02*
X161762681Y-78969809D01*
X162004586Y-79453619D02*
X162004586Y-78437619D01*
X161617539Y-78437619D01*
X161520777Y-78486000D01*
X161472396Y-78534380D01*
X161424015Y-78631142D01*
X161424015Y-78776285D01*
X161472396Y-78873047D01*
X161520777Y-78921428D01*
X161617539Y-78969809D01*
X162004586Y-78969809D01*
X161085348Y-78437619D02*
X160408015Y-79453619D01*
X160408015Y-78437619D02*
X161085348Y-79453619D01*
X160020967Y-79453619D02*
X160020967Y-78437619D01*
X159779062Y-78437619D01*
X159633920Y-78486000D01*
X159537158Y-78582761D01*
X159488777Y-78679523D01*
X159440396Y-78873047D01*
X159440396Y-79018190D01*
X159488777Y-79211714D01*
X159537158Y-79308476D01*
X159633920Y-79405238D01*
X159779062Y-79453619D01*
X160020967Y-79453619D01*
X166504015Y-80977619D02*
X166504015Y-81800095D01*
X166455634Y-81896857D01*
X166407253Y-81945238D01*
X166310491Y-81993619D01*
X166116967Y-81993619D01*
X166020205Y-81945238D01*
X165971824Y-81896857D01*
X165923443Y-81800095D01*
X165923443Y-80977619D01*
X165488015Y-81703333D02*
X165004205Y-81703333D01*
X165584777Y-81993619D02*
X165246110Y-80977619D01*
X164907443Y-81993619D01*
X163988205Y-81993619D02*
X164326872Y-81509809D01*
X164568777Y-81993619D02*
X164568777Y-80977619D01*
X164181729Y-80977619D01*
X164084967Y-81026000D01*
X164036586Y-81074380D01*
X163988205Y-81171142D01*
X163988205Y-81316285D01*
X164036586Y-81413047D01*
X164084967Y-81461428D01*
X164181729Y-81509809D01*
X164568777Y-81509809D01*
X163697920Y-80977619D02*
X163117348Y-80977619D01*
X163407634Y-81993619D02*
X163407634Y-80977619D01*
X163020586Y-82090380D02*
X162246491Y-82090380D01*
X162149729Y-80977619D02*
X161569158Y-80977619D01*
X161859443Y-81993619D02*
X161859443Y-80977619D01*
X161327253Y-80977619D02*
X160649920Y-81993619D01*
X160649920Y-80977619D02*
X161327253Y-81993619D01*
X160262872Y-81993619D02*
X160262872Y-80977619D01*
X160020967Y-80977619D01*
X159875824Y-81026000D01*
X159779062Y-81122761D01*
X159730681Y-81219523D01*
X159682300Y-81413047D01*
X159682300Y-81558190D01*
X159730681Y-81751714D01*
X159779062Y-81848476D01*
X159875824Y-81945238D01*
X160020967Y-81993619D01*
X160262872Y-81993619D01*
X151264015Y-80977619D02*
X151264015Y-81800095D01*
X151215634Y-81896857D01*
X151167253Y-81945238D01*
X151070491Y-81993619D01*
X150876967Y-81993619D01*
X150780205Y-81945238D01*
X150731824Y-81896857D01*
X150683443Y-81800095D01*
X150683443Y-80977619D01*
X150248015Y-81703333D02*
X149764205Y-81703333D01*
X150344777Y-81993619D02*
X150006110Y-80977619D01*
X149667443Y-81993619D01*
X148748205Y-81993619D02*
X149086872Y-81509809D01*
X149328777Y-81993619D02*
X149328777Y-80977619D01*
X148941729Y-80977619D01*
X148844967Y-81026000D01*
X148796586Y-81074380D01*
X148748205Y-81171142D01*
X148748205Y-81316285D01*
X148796586Y-81413047D01*
X148844967Y-81461428D01*
X148941729Y-81509809D01*
X149328777Y-81509809D01*
X148457920Y-80977619D02*
X147877348Y-80977619D01*
X148167634Y-81993619D02*
X148167634Y-80977619D01*
X147780586Y-82090380D02*
X147006491Y-82090380D01*
X146184015Y-81993619D02*
X146522681Y-81509809D01*
X146764586Y-81993619D02*
X146764586Y-80977619D01*
X146377539Y-80977619D01*
X146280777Y-81026000D01*
X146232396Y-81074380D01*
X146184015Y-81171142D01*
X146184015Y-81316285D01*
X146232396Y-81413047D01*
X146280777Y-81461428D01*
X146377539Y-81509809D01*
X146764586Y-81509809D01*
X145796967Y-81945238D02*
X145651824Y-81993619D01*
X145409920Y-81993619D01*
X145313158Y-81945238D01*
X145264777Y-81896857D01*
X145216396Y-81800095D01*
X145216396Y-81703333D01*
X145264777Y-81606571D01*
X145313158Y-81558190D01*
X145409920Y-81509809D01*
X145603443Y-81461428D01*
X145700205Y-81413047D01*
X145748586Y-81364666D01*
X145796967Y-81267904D01*
X145796967Y-81171142D01*
X145748586Y-81074380D01*
X145700205Y-81026000D01*
X145603443Y-80977619D01*
X145361539Y-80977619D01*
X145216396Y-81026000D01*
X144926110Y-80977619D02*
X144345539Y-80977619D01*
X144635824Y-81993619D02*
X144635824Y-80977619D01*
X157202777Y-78437619D02*
X156960872Y-79453619D01*
X156767348Y-78727904D01*
X156573824Y-79453619D01*
X156331920Y-78437619D01*
X155461062Y-79453619D02*
X155944872Y-79453619D01*
X155944872Y-78437619D01*
X155170777Y-79163333D02*
X154686967Y-79163333D01*
X155267539Y-79453619D02*
X154928872Y-78437619D01*
X154590205Y-79453619D01*
X154251539Y-79453619D02*
X154251539Y-78437619D01*
X153670967Y-79453619D01*
X153670967Y-78437619D01*
X153429062Y-79550380D02*
X152654967Y-79550380D01*
X152413062Y-79453619D02*
X152413062Y-78437619D01*
X152413062Y-78921428D02*
X151832491Y-78921428D01*
X151832491Y-79453619D02*
X151832491Y-78437619D01*
X151155158Y-78437619D02*
X150961634Y-78437619D01*
X150864872Y-78486000D01*
X150768110Y-78582761D01*
X150719729Y-78776285D01*
X150719729Y-79114952D01*
X150768110Y-79308476D01*
X150864872Y-79405238D01*
X150961634Y-79453619D01*
X151155158Y-79453619D01*
X151251920Y-79405238D01*
X151348681Y-79308476D01*
X151397062Y-79114952D01*
X151397062Y-78776285D01*
X151348681Y-78582761D01*
X151251920Y-78486000D01*
X151155158Y-78437619D01*
X150332681Y-79405238D02*
X150187539Y-79453619D01*
X149945634Y-79453619D01*
X149848872Y-79405238D01*
X149800491Y-79356857D01*
X149752110Y-79260095D01*
X149752110Y-79163333D01*
X149800491Y-79066571D01*
X149848872Y-79018190D01*
X149945634Y-78969809D01*
X150139158Y-78921428D01*
X150235920Y-78873047D01*
X150284300Y-78824666D01*
X150332681Y-78727904D01*
X150332681Y-78631142D01*
X150284300Y-78534380D01*
X150235920Y-78486000D01*
X150139158Y-78437619D01*
X149897253Y-78437619D01*
X149752110Y-78486000D01*
X149461824Y-78437619D02*
X148881253Y-78437619D01*
X149171539Y-79453619D02*
X149171539Y-78437619D01*
X148784491Y-79550380D02*
X148010396Y-79550380D01*
X147865253Y-78437619D02*
X147623348Y-79453619D01*
X147429824Y-78727904D01*
X147236300Y-79453619D01*
X146994396Y-78437619D01*
X146655729Y-79163333D02*
X146171920Y-79163333D01*
X146752491Y-79453619D02*
X146413824Y-78437619D01*
X146075158Y-79453619D01*
X145736491Y-79453619D02*
X145736491Y-78437619D01*
X145155920Y-79453619D02*
X145591348Y-78873047D01*
X145155920Y-78437619D02*
X145736491Y-79018190D01*
X144720491Y-78921428D02*
X144381824Y-78921428D01*
X144236681Y-79453619D02*
X144720491Y-79453619D01*
X144720491Y-78437619D01*
X144236681Y-78437619D01*
X151941348Y-76381428D02*
X151796205Y-76429809D01*
X151747824Y-76478190D01*
X151699443Y-76574952D01*
X151699443Y-76720095D01*
X151747824Y-76816857D01*
X151796205Y-76865238D01*
X151892967Y-76913619D01*
X152280015Y-76913619D01*
X152280015Y-75897619D01*
X151941348Y-75897619D01*
X151844586Y-75946000D01*
X151796205Y-75994380D01*
X151747824Y-76091142D01*
X151747824Y-76187904D01*
X151796205Y-76284666D01*
X151844586Y-76333047D01*
X151941348Y-76381428D01*
X152280015Y-76381428D01*
X151409158Y-75897619D02*
X150828586Y-75897619D01*
X151118872Y-76913619D02*
X151118872Y-75897619D01*
X150731824Y-77010380D02*
X149957729Y-77010380D01*
X149135253Y-76913619D02*
X149473920Y-76429809D01*
X149715824Y-76913619D02*
X149715824Y-75897619D01*
X149328777Y-75897619D01*
X149232015Y-75946000D01*
X149183634Y-75994380D01*
X149135253Y-76091142D01*
X149135253Y-76236285D01*
X149183634Y-76333047D01*
X149232015Y-76381428D01*
X149328777Y-76429809D01*
X149715824Y-76429809D01*
X148699824Y-76381428D02*
X148361158Y-76381428D01*
X148216015Y-76913619D02*
X148699824Y-76913619D01*
X148699824Y-75897619D01*
X148216015Y-75897619D01*
X147248396Y-75946000D02*
X147345158Y-75897619D01*
X147490300Y-75897619D01*
X147635443Y-75946000D01*
X147732205Y-76042761D01*
X147780586Y-76139523D01*
X147828967Y-76333047D01*
X147828967Y-76478190D01*
X147780586Y-76671714D01*
X147732205Y-76768476D01*
X147635443Y-76865238D01*
X147490300Y-76913619D01*
X147393539Y-76913619D01*
X147248396Y-76865238D01*
X147200015Y-76816857D01*
X147200015Y-76478190D01*
X147393539Y-76478190D01*
X147006491Y-77010380D02*
X146232396Y-77010380D01*
X145796967Y-75897619D02*
X145603443Y-75897619D01*
X145506681Y-75946000D01*
X145409920Y-76042761D01*
X145361539Y-76236285D01*
X145361539Y-76574952D01*
X145409920Y-76768476D01*
X145506681Y-76865238D01*
X145603443Y-76913619D01*
X145796967Y-76913619D01*
X145893729Y-76865238D01*
X145990491Y-76768476D01*
X146038872Y-76574952D01*
X146038872Y-76236285D01*
X145990491Y-76042761D01*
X145893729Y-75946000D01*
X145796967Y-75897619D01*
X144926110Y-76913619D02*
X144926110Y-75897619D01*
X144345539Y-76913619D01*
X144345539Y-75897619D01*
X154408777Y-73865619D02*
X154166872Y-74881619D01*
X153973348Y-74155904D01*
X153779824Y-74881619D01*
X153537920Y-73865619D01*
X152667062Y-74881619D02*
X153150872Y-74881619D01*
X153150872Y-73865619D01*
X152376777Y-74591333D02*
X151892967Y-74591333D01*
X152473539Y-74881619D02*
X152134872Y-73865619D01*
X151796205Y-74881619D01*
X151457539Y-74881619D02*
X151457539Y-73865619D01*
X150876967Y-74881619D01*
X150876967Y-73865619D01*
X150635062Y-74978380D02*
X149860967Y-74978380D01*
X149038491Y-74881619D02*
X149377158Y-74397809D01*
X149619062Y-74881619D02*
X149619062Y-73865619D01*
X149232015Y-73865619D01*
X149135253Y-73914000D01*
X149086872Y-73962380D01*
X149038491Y-74059142D01*
X149038491Y-74204285D01*
X149086872Y-74301047D01*
X149135253Y-74349428D01*
X149232015Y-74397809D01*
X149619062Y-74397809D01*
X148603062Y-74349428D02*
X148264396Y-74349428D01*
X148119253Y-74881619D02*
X148603062Y-74881619D01*
X148603062Y-73865619D01*
X148119253Y-73865619D01*
X147151634Y-73914000D02*
X147248396Y-73865619D01*
X147393539Y-73865619D01*
X147538681Y-73914000D01*
X147635443Y-74010761D01*
X147683824Y-74107523D01*
X147732205Y-74301047D01*
X147732205Y-74446190D01*
X147683824Y-74639714D01*
X147635443Y-74736476D01*
X147538681Y-74833238D01*
X147393539Y-74881619D01*
X147296777Y-74881619D01*
X147151634Y-74833238D01*
X147103253Y-74784857D01*
X147103253Y-74446190D01*
X147296777Y-74446190D01*
X146909729Y-74978380D02*
X146135634Y-74978380D01*
X145700205Y-73865619D02*
X145506681Y-73865619D01*
X145409920Y-73914000D01*
X145313158Y-74010761D01*
X145264777Y-74204285D01*
X145264777Y-74542952D01*
X145313158Y-74736476D01*
X145409920Y-74833238D01*
X145506681Y-74881619D01*
X145700205Y-74881619D01*
X145796967Y-74833238D01*
X145893729Y-74736476D01*
X145942110Y-74542952D01*
X145942110Y-74204285D01*
X145893729Y-74010761D01*
X145796967Y-73914000D01*
X145700205Y-73865619D01*
X144829348Y-74881619D02*
X144829348Y-73865619D01*
X144248777Y-74881619D01*
X144248777Y-73865619D01*
X144551158Y-66245619D02*
X144212491Y-67261619D01*
X143873824Y-66245619D01*
X143196491Y-66729428D02*
X143051348Y-66777809D01*
X143002967Y-66826190D01*
X142954586Y-66922952D01*
X142954586Y-67068095D01*
X143002967Y-67164857D01*
X143051348Y-67213238D01*
X143148110Y-67261619D01*
X143535158Y-67261619D01*
X143535158Y-66245619D01*
X143196491Y-66245619D01*
X143099729Y-66294000D01*
X143051348Y-66342380D01*
X143002967Y-66439142D01*
X143002967Y-66535904D01*
X143051348Y-66632666D01*
X143099729Y-66681047D01*
X143196491Y-66729428D01*
X143535158Y-66729428D01*
X142567539Y-66971333D02*
X142083729Y-66971333D01*
X142664300Y-67261619D02*
X142325634Y-66245619D01*
X141986967Y-67261619D01*
X141793443Y-66245619D02*
X141212872Y-66245619D01*
X141503158Y-67261619D02*
X141503158Y-66245619D01*
X158895142Y-72705443D02*
X158846761Y-72753824D01*
X158798380Y-72898967D01*
X158798380Y-72995729D01*
X158846761Y-73140872D01*
X158943523Y-73237634D01*
X159040285Y-73286015D01*
X159233809Y-73334396D01*
X159378952Y-73334396D01*
X159572476Y-73286015D01*
X159669238Y-73237634D01*
X159766000Y-73140872D01*
X159814380Y-72995729D01*
X159814380Y-72898967D01*
X159766000Y-72753824D01*
X159717619Y-72705443D01*
X158798380Y-72270015D02*
X159814380Y-72270015D01*
X159088666Y-71931348D01*
X159814380Y-71592681D01*
X158798380Y-71592681D01*
X158798380Y-71108872D02*
X159814380Y-71108872D01*
X159814380Y-70866967D01*
X159766000Y-70721824D01*
X159669238Y-70625062D01*
X159572476Y-70576681D01*
X159378952Y-70528300D01*
X159233809Y-70528300D01*
X159040285Y-70576681D01*
X158943523Y-70625062D01*
X158846761Y-70721824D01*
X158798380Y-70866967D01*
X158798380Y-71108872D01*
X153815142Y-72705443D02*
X153766761Y-72753824D01*
X153718380Y-72898967D01*
X153718380Y-72995729D01*
X153766761Y-73140872D01*
X153863523Y-73237634D01*
X153960285Y-73286015D01*
X154153809Y-73334396D01*
X154298952Y-73334396D01*
X154492476Y-73286015D01*
X154589238Y-73237634D01*
X154686000Y-73140872D01*
X154734380Y-72995729D01*
X154734380Y-72898967D01*
X154686000Y-72753824D01*
X154637619Y-72705443D01*
X153718380Y-71786205D02*
X153718380Y-72270015D01*
X154734380Y-72270015D01*
X153718380Y-71447539D02*
X154734380Y-71447539D01*
X153718380Y-70866967D02*
X154298952Y-71302396D01*
X154734380Y-70866967D02*
X154153809Y-71447539D01*
X157528380Y-73177158D02*
X156512380Y-72838491D01*
X157528380Y-72499824D01*
X156512380Y-72161158D02*
X157528380Y-72161158D01*
X157528380Y-71483824D02*
X157528380Y-71290300D01*
X157480000Y-71193539D01*
X157383238Y-71096777D01*
X157189714Y-71048396D01*
X156851047Y-71048396D01*
X156657523Y-71096777D01*
X156560761Y-71193539D01*
X156512380Y-71290300D01*
X156512380Y-71483824D01*
X156560761Y-71580586D01*
X156657523Y-71677348D01*
X156851047Y-71725729D01*
X157189714Y-71725729D01*
X157383238Y-71677348D01*
X157480000Y-71580586D01*
X157528380Y-71483824D01*
X152146000Y-72753824D02*
X152194380Y-72850586D01*
X152194380Y-72995729D01*
X152146000Y-73140872D01*
X152049238Y-73237634D01*
X151952476Y-73286015D01*
X151758952Y-73334396D01*
X151613809Y-73334396D01*
X151420285Y-73286015D01*
X151323523Y-73237634D01*
X151226761Y-73140872D01*
X151178380Y-72995729D01*
X151178380Y-72898967D01*
X151226761Y-72753824D01*
X151275142Y-72705443D01*
X151613809Y-72705443D01*
X151613809Y-72898967D01*
X151178380Y-72270015D02*
X152194380Y-72270015D01*
X151178380Y-71689443D01*
X152194380Y-71689443D01*
X151178380Y-71205634D02*
X152194380Y-71205634D01*
X152194380Y-70963729D01*
X152146000Y-70818586D01*
X152049238Y-70721824D01*
X151952476Y-70673443D01*
X151758952Y-70625062D01*
X151613809Y-70625062D01*
X151420285Y-70673443D01*
X151323523Y-70721824D01*
X151226761Y-70818586D01*
X151178380Y-70963729D01*
X151178380Y-71205634D01*
X146098380Y-67444015D02*
X147114380Y-67444015D01*
X147114380Y-67202110D01*
X147066000Y-67056967D01*
X146969238Y-66960205D01*
X146872476Y-66911824D01*
X146678952Y-66863443D01*
X146533809Y-66863443D01*
X146340285Y-66911824D01*
X146243523Y-66960205D01*
X146146761Y-67056967D01*
X146098380Y-67202110D01*
X146098380Y-67444015D01*
X146098380Y-65895824D02*
X146098380Y-66476396D01*
X146098380Y-66186110D02*
X147114380Y-66186110D01*
X146969238Y-66282872D01*
X146872476Y-66379634D01*
X146824095Y-66476396D01*
X148638380Y-67444015D02*
X149654380Y-67444015D01*
X149654380Y-67202110D01*
X149606000Y-67056967D01*
X149509238Y-66960205D01*
X149412476Y-66911824D01*
X149218952Y-66863443D01*
X149073809Y-66863443D01*
X148880285Y-66911824D01*
X148783523Y-66960205D01*
X148686761Y-67056967D01*
X148638380Y-67202110D01*
X148638380Y-67444015D01*
X149654380Y-66234491D02*
X149654380Y-66137729D01*
X149606000Y-66040967D01*
X149557619Y-65992586D01*
X149460857Y-65944205D01*
X149267333Y-65895824D01*
X149025428Y-65895824D01*
X148831904Y-65944205D01*
X148735142Y-65992586D01*
X148686761Y-66040967D01*
X148638380Y-66137729D01*
X148638380Y-66234491D01*
X148686761Y-66331253D01*
X148735142Y-66379634D01*
X148831904Y-66428015D01*
X149025428Y-66476396D01*
X149267333Y-66476396D01*
X149460857Y-66428015D01*
X149557619Y-66379634D01*
X149606000Y-66331253D01*
X149654380Y-66234491D01*
X161338380Y-67444015D02*
X162354380Y-67444015D01*
X162354380Y-67202110D01*
X162306000Y-67056967D01*
X162209238Y-66960205D01*
X162112476Y-66911824D01*
X161918952Y-66863443D01*
X161773809Y-66863443D01*
X161580285Y-66911824D01*
X161483523Y-66960205D01*
X161386761Y-67056967D01*
X161338380Y-67202110D01*
X161338380Y-67444015D01*
X162354380Y-66524777D02*
X162354380Y-65895824D01*
X161967333Y-66234491D01*
X161967333Y-66089348D01*
X161918952Y-65992586D01*
X161870571Y-65944205D01*
X161773809Y-65895824D01*
X161531904Y-65895824D01*
X161435142Y-65944205D01*
X161386761Y-65992586D01*
X161338380Y-66089348D01*
X161338380Y-66379634D01*
X161386761Y-66476396D01*
X161435142Y-66524777D01*
X163878380Y-67444015D02*
X164894380Y-67444015D01*
X164894380Y-67202110D01*
X164846000Y-67056967D01*
X164749238Y-66960205D01*
X164652476Y-66911824D01*
X164458952Y-66863443D01*
X164313809Y-66863443D01*
X164120285Y-66911824D01*
X164023523Y-66960205D01*
X163926761Y-67056967D01*
X163878380Y-67202110D01*
X163878380Y-67444015D01*
X164797619Y-66476396D02*
X164846000Y-66428015D01*
X164894380Y-66331253D01*
X164894380Y-66089348D01*
X164846000Y-65992586D01*
X164797619Y-65944205D01*
X164700857Y-65895824D01*
X164604095Y-65895824D01*
X164458952Y-65944205D01*
X163878380Y-66524777D01*
X163878380Y-65895824D01*
X165971824Y-70866000D02*
X166068586Y-70817619D01*
X166213729Y-70817619D01*
X166358872Y-70866000D01*
X166455634Y-70962761D01*
X166504015Y-71059523D01*
X166552396Y-71253047D01*
X166552396Y-71398190D01*
X166504015Y-71591714D01*
X166455634Y-71688476D01*
X166358872Y-71785238D01*
X166213729Y-71833619D01*
X166116967Y-71833619D01*
X165971824Y-71785238D01*
X165923443Y-71736857D01*
X165923443Y-71398190D01*
X166116967Y-71398190D01*
X165488015Y-71833619D02*
X165488015Y-70817619D01*
X164907443Y-71833619D01*
X164907443Y-70817619D01*
X164423634Y-71833619D02*
X164423634Y-70817619D01*
X164181729Y-70817619D01*
X164036586Y-70866000D01*
X163939824Y-70962761D01*
X163891443Y-71059523D01*
X163843062Y-71253047D01*
X163843062Y-71398190D01*
X163891443Y-71591714D01*
X163939824Y-71688476D01*
X164036586Y-71785238D01*
X164181729Y-71833619D01*
X164423634Y-71833619D01*
X146413824Y-70866000D02*
X146510586Y-70817619D01*
X146655729Y-70817619D01*
X146800872Y-70866000D01*
X146897634Y-70962761D01*
X146946015Y-71059523D01*
X146994396Y-71253047D01*
X146994396Y-71398190D01*
X146946015Y-71591714D01*
X146897634Y-71688476D01*
X146800872Y-71785238D01*
X146655729Y-71833619D01*
X146558967Y-71833619D01*
X146413824Y-71785238D01*
X146365443Y-71736857D01*
X146365443Y-71398190D01*
X146558967Y-71398190D01*
X145930015Y-71833619D02*
X145930015Y-70817619D01*
X145349443Y-71833619D01*
X145349443Y-70817619D01*
X144865634Y-71833619D02*
X144865634Y-70817619D01*
X144623729Y-70817619D01*
X144478586Y-70866000D01*
X144381824Y-70962761D01*
X144333443Y-71059523D01*
X144285062Y-71253047D01*
X144285062Y-71398190D01*
X144333443Y-71591714D01*
X144381824Y-71688476D01*
X144478586Y-71785238D01*
X144623729Y-71833619D01*
X144865634Y-71833619D01*
M02*
